<svg width="16" height="16" viewBox="0 0 16 16" fill="none" xmlns="http://www.w3.org/2000/svg">
<circle cx="8" cy="8" r="8" fill="#D9D9D9"/>
<circle cx="8" cy="8" r="7.5" fill="#00FF00" fill-opacity="0.21" stroke="#00930F"/>
<path d="M5.35355 4.64645C5.15829 4.45118 4.84171 4.45118 4.64645 4.64645C4.45118 4.84171 4.45118 5.15829 4.64645 5.35355L5.35355 4.64645ZM11 11.5C11.2761 11.5 11.5 11.2761 11.5 11L11.5 6.5C11.5 6.22386 11.2761 6 11 6C10.7239 6 10.5 6.22386 10.5 6.5L10.5 10.5L6.5 10.5C6.22386 10.5 6 10.7239 6 11C6 11.2761 6.22386 11.5 6.5 11.5L11 11.5ZM4.64645 5.35355L10.6464 11.3536L11.3536 10.6464L5.35355 4.64645L4.64645 5.35355Z" fill="#00930F"/>
</svg>
