<svg width="16" height="16" viewBox="0 0 16 16" fill="none" xmlns="http://www.w3.org/2000/svg">
<circle cx="8" cy="8" r="8" fill="#D9D9D9"/>
<circle cx="8" cy="8" r="7.5" fill="#FF0000" fill-opacity="0.21" stroke="#D80000"/>
<path d="M4.64645 10.6464C4.45118 10.8417 4.45118 11.1583 4.64645 11.3536C4.84171 11.5488 5.15829 11.5488 5.35355 11.3536L4.64645 10.6464ZM11.5 5C11.5 4.72386 11.2761 4.5 11 4.5L6.5 4.5C6.22386 4.5 6 4.72386 6 5C6 5.27614 6.22386 5.5 6.5 5.5L10.5 5.5L10.5 9.5C10.5 9.77614 10.7239 10 11 10C11.2761 10 11.5 9.77614 11.5 9.5L11.5 5ZM5.35355 11.3536L11.3536 5.35355L10.6464 4.64645L4.64645 10.6464L5.35355 11.3536Z" fill="#D80000"/>
</svg>
