<svg width="100%" height="100%" viewBox="0 0 23 20" fill="none" xmlns="http://www.w3.org/2000/svg">
<rect width="23" height="20" rx="1" fill="#E87425"/>
<rect x="0.719922" y="0.8" width="21.4" height="18.4" rx="1.2" fill="#E87425" stroke="black" stroke-width="0.4"/>
<path d="M5.56296 4.325C5.55963 4.90833 5.43796 5.33333 5.19796 5.6C4.96129 5.86667 4.66963 6 4.32296 6H3.27796V2.65H4.32296C4.66963 2.65 4.96129 2.78333 5.19796 3.05C5.43796 3.31667 5.55963 3.74167 5.56296 4.325ZM3.80796 4.325V5.47H4.32296C4.54629 5.46333 4.71963 5.35667 4.84296 5.15C4.96963 4.94333 5.03463 4.66833 5.03796 4.325C5.03796 3.95833 4.97463 3.67833 4.84796 3.485C4.72129 3.28833 4.54629 3.18667 4.32296 3.18H3.80796V4.325ZM8.1364 6H6.0564V2.65H8.0314V3.18H6.5864V4.005H7.5614V4.545H6.5864V5.46H8.1364V6ZM10.6996 3.12H9.92464V6H9.39464V3.12H8.62964V2.65H10.6996V3.12ZM12.3629 6.06C11.9695 6.06 11.6662 5.91167 11.4529 5.615C11.2429 5.315 11.1379 4.885 11.1379 4.325C11.1379 3.77833 11.2429 3.35333 11.4529 3.05C11.6662 2.74667 11.9695 2.595 12.3629 2.595C12.7629 2.595 13.0662 2.74667 13.2729 3.05C13.4829 3.35333 13.5879 3.77833 13.5879 4.325C13.5879 4.885 13.4829 5.315 13.2729 5.615C13.0662 5.91167 12.7629 6.06 12.3629 6.06ZM12.3629 3.125C12.1295 3.125 11.9595 3.23667 11.8529 3.46C11.7462 3.68 11.6912 3.965 11.6879 4.315C11.6879 4.70833 11.7395 5.00667 11.8429 5.21C11.9495 5.41333 12.1229 5.51333 12.3629 5.51C12.6162 5.50333 12.7912 5.39833 12.8879 5.195C12.9845 4.99167 13.0362 4.69833 13.0429 4.315C13.0362 3.94167 12.9795 3.65333 12.8729 3.45C12.7695 3.24667 12.5995 3.13833 12.3629 3.125ZM16.31 4.8C16.31 5.06333 16.2584 5.295 16.155 5.495C16.0717 5.66167 15.9384 5.79833 15.755 5.905C15.5717 6.00833 15.3767 6.06 15.17 6.06C14.9634 6.06 14.7684 6.00833 14.585 5.905C14.4017 5.79833 14.2667 5.66167 14.18 5.495C14.08 5.295 14.03 5.06333 14.03 4.8V2.65H14.56V4.8C14.56 5.01667 14.615 5.19167 14.725 5.325C14.8384 5.455 14.9867 5.52 15.17 5.52C15.3534 5.52 15.5 5.455 15.61 5.325C15.7234 5.19167 15.78 5.01667 15.78 4.8V2.65H16.31V4.8ZM19.0835 6H18.5085L17.9685 4.545H17.3335V6H16.8035V2.65H18.1285C18.4018 2.65333 18.6168 2.75333 18.7735 2.95C18.9335 3.14333 19.0135 3.35667 19.0135 3.59C19.0135 3.76667 18.9651 3.935 18.8685 4.095C18.7718 4.25167 18.6468 4.365 18.4935 4.435L19.0835 6ZM18.4885 3.605C18.4885 3.475 18.4485 3.375 18.3685 3.305C18.2918 3.235 18.2051 3.19833 18.1085 3.195H17.3335V4.02H18.1285C18.2285 4.02 18.3135 3.98333 18.3835 3.91C18.4535 3.83667 18.4885 3.735 18.4885 3.605Z" fill="black"/>
<path d="M4.6001 13V14.5H13.3401L12.501 17.2362C12.4736 17.3256 12.5729 17.4003 12.6512 17.3493L19.3201 13L12.6466 8.16413C12.5705 8.10902 12.4673 8.17968 12.4912 8.27053L13.3401 11.5H4.6001V13Z" fill="black" stroke="black"/>
</svg>
