<?xml version="1.0" encoding="utf-8"?>

<!DOCTYPE svg PUBLIC "-//W3C//DTD SVG 1.1//EN" "http://www.w3.org/Graphics/SVG/1.1/DTD/svg11.dtd">
<!-- Uploaded to: SVG Repo, www.svgrepo.com, Generator: SVG Repo Mixer Tools -->
<svg fill="#ffffff" height="800px" width="800px" version="1.1" id="_x32_" xmlns="http://www.w3.org/2000/svg" xmlns:xlink="http://www.w3.org/1999/xlink" 
	 viewBox="0 0 512 512"  xml:space="preserve">
<g>
	<path class="st0" d="M190.922,219.894c-11.799,0-21.355,9.556-21.355,21.348c0,11.782,9.556,21.339,21.355,21.339
		c11.783,0,21.34-9.557,21.34-21.339C212.261,229.451,202.704,219.894,190.922,219.894z"/>
	<path class="st0" d="M321.095,219.894c-11.783,0-21.348,9.556-21.348,21.348c0,11.782,9.565,21.339,21.348,21.339
		c11.79,0,21.347-9.557,21.347-21.339C342.442,229.451,332.885,219.894,321.095,219.894z"/>
	<path class="st0" d="M395.775,134.779H116.226c-21.485,0-38.961,17.476-38.961,38.96v299.3c0,21.485,17.476,38.961,38.961,38.961
		h279.549c21.492,0,38.96-17.476,38.96-38.961v-299.3C434.735,152.255,417.267,134.779,395.775,134.779z M186.328,487.41
		c0.065-0.491,0.286-0.919,0.286-1.427l4.307-97.705l4.298,97.705c0,0.508,0.222,0.936,0.287,1.427H186.328z M316.51,487.41
		c0.064-0.491,0.286-0.919,0.286-1.427l4.298-97.705l4.299,97.705c0,0.508,0.222,0.936,0.29,1.427H316.51z M410.146,473.039
		c0,7.928-6.444,14.371-14.371,14.371h-49.006c0.064-0.491,0.286-0.919,0.286-1.427l4.274-158.924l3.919,42.686
		c0.218,4.589,4.114,8.13,8.694,7.903c4.581-0.217,8.121-4.104,7.903-8.694v-70.277c0-29.412-35.59-30.855-50.752-30.855
		c-15.154,0-50.743,1.443-50.743,30.855v70.277c-0.218,4.589,3.322,8.476,7.903,8.694c4.581,0.226,8.468-3.314,8.694-7.903
		l3.92-42.686l4.266,158.924c0,0.508,0.222,0.936,0.291,1.427h-78.833c0.069-0.491,0.29-0.919,0.29-1.427l4.274-158.924
		l3.912,42.686c0.217,4.589,4.113,8.13,8.694,7.903c4.581-0.217,8.121-4.104,7.903-8.694v-70.277
		c0-29.412-35.589-30.855-50.743-30.855c-15.154,0-50.752,1.443-50.752,30.855v70.277c-0.218,4.589,3.322,8.476,7.903,8.694
		c4.581,0.226,8.476-3.314,8.694-7.903l3.92-42.686l4.274,158.924c0,0.508,0.222,0.936,0.286,1.427h-49.021
		c-7.92,0-14.372-6.443-14.372-14.371v-299.3c0-7.927,6.452-14.371,14.372-14.371h279.549c7.927,0,14.371,6.444,14.371,14.371
		V473.039z"/>
	<path class="st0" d="M286.457,70.744l29.21-29.21v65.672c0,5.992,4.855,10.848,10.846,10.848c5.992,0,10.847-4.855,10.847-10.848
		V41.534l29.219,29.21c2.114,2.122,4.888,3.178,7.67,3.178c2.774,0,5.557-1.056,7.67-3.178c4.242-4.234,4.242-11.105,0-15.347
		L334.184,7.67L326.514,0l-7.67,7.67L271.11,55.397c-4.234,4.242-4.234,11.113,0,15.347
		C275.351,74.978,282.223,74.978,286.457,70.744z"/>
	<path class="st0" d="M182.881,114.875l7.67,7.67l7.67-7.67l47.736-47.736c4.234-4.234,4.234-11.105,0-15.339
		c-4.234-4.234-11.106-4.234-15.34,0l-29.219,29.21V15.34c0-5.992-4.854-10.848-10.846-10.848s-10.847,4.855-10.847,10.848v65.671
		l-29.21-29.21c-4.234-4.234-11.105-4.234-15.348,0c-4.234,4.234-4.234,11.105,0,15.339L182.881,114.875z"/>
</g>
</svg>