<?xml version="1.0" encoding="utf-8"?><!-- Uploaded to: SVG Repo, www.svgrepo.com, Generator: SVG Repo Mixer Tools -->
<svg fill="#ffffff" width="800px" height="800px" viewBox="0 0 24 24" xmlns="http://www.w3.org/2000/svg"><path d="M23,17.5v4a1,1,0,0,1-2,0V19.914l-2.293,2.293a1,1,0,0,1-1.414-1.414L19.586,18.5H18a1,1,0,0,1,0-2h4A1,1,0,0,1,23,17.5Zm-18.5,5H7.2a4,4,0,0,0,2.989-1.343l6.21-6.986a2,2,0,0,1,1.5-.671h1.6a2.5,2.5,0,0,0,0-5H16.8a4,4,0,0,0-2.989,1.343L7.6,16.829A2,2,0,0,1,6.1,17.5H4.5a2.5,2.5,0,0,0,0,5ZM8,6.5A2.5,2.5,0,1,0,5.5,4,2.5,2.5,0,0,0,8,6.5Zm2.954,3.542A2.994,2.994,0,0,0,5,10.5v5H6.1Z"/></svg>