<svg width="100%" height="100%" viewBox="0 0 20 21" fill="none" xmlns="http://www.w3.org/2000/svg">
<path d="M16.8001 4.65513C15.9167 3.76947 14.7457 3.22891 13.4987 3.1311C12.2516 3.03329 11.0107 3.38468 10.0001 4.12179C8.93978 3.33316 7.62006 2.97555 6.30667 3.12099C4.99327 3.26643 3.78377 3.90411 2.92171 4.90561C2.05966 5.90712 1.60909 7.19806 1.66073 8.51847C1.71238 9.83888 2.26242 11.0907 3.20007 12.0218L8.37507 17.2051C8.80842 17.6316 9.39206 17.8706 10.0001 17.8706C10.6081 17.8706 11.1917 17.6316 11.6251 17.2051L16.8001 12.0218C17.7731 11.0428 18.3192 9.71869 18.3192 8.33846C18.3192 6.95823 17.7731 5.63407 16.8001 4.65513V4.65513ZM15.6251 10.8718L10.4501 16.0468C10.3912 16.1063 10.3211 16.1535 10.2439 16.1857C10.1666 16.2179 10.0838 16.2345 10.0001 16.2345C9.91638 16.2345 9.83352 16.2179 9.75628 16.1857C9.67904 16.1535 9.60896 16.1063 9.55007 16.0468L4.37507 10.8468C3.72153 10.1787 3.35558 9.28135 3.35558 8.34679C3.35558 7.41224 3.72153 6.51484 4.37507 5.84679C5.04103 5.18928 5.93921 4.8206 6.87507 4.8206C7.81092 4.8206 8.7091 5.18928 9.37507 5.84679C9.45254 5.9249 9.5447 5.9869 9.64625 6.0292C9.7478 6.07151 9.85672 6.09329 9.96673 6.09329C10.0767 6.09329 10.1857 6.07151 10.2872 6.0292C10.3888 5.9869 10.4809 5.9249 10.5584 5.84679C11.2244 5.18928 12.1225 4.8206 13.0584 4.8206C13.9943 4.8206 14.8924 5.18928 15.5584 5.84679C16.2209 6.50608 16.5989 7.39862 16.6114 8.3332C16.6238 9.26778 16.2698 10.1701 15.6251 10.8468V10.8718Z" fill="white"/>
</svg>
