<svg width="21" height="21" viewBox="0 0 21 21" fill="none" xmlns="http://www.w3.org/2000/svg">
<path d="M10.0282 0.488403C8.71497 0.488403 7.41461 0.747061 6.20135 1.24961C4.9881 1.75216 3.8857 2.48875 2.95712 3.41734C1.08175 5.2927 0.0281864 7.83624 0.0281864 10.4884C0.0194442 12.7975 0.818979 15.0369 2.28819 16.8184L0.288186 18.8184C0.149429 18.959 0.0554325 19.1376 0.0180584 19.3316C-0.0193158 19.5256 0.0016069 19.7263 0.0781863 19.9084C0.161244 20.0883 0.29589 20.2395 0.465033 20.3428C0.634176 20.4461 0.830187 20.4967 1.02819 20.4884H10.0282C12.6804 20.4884 15.2239 19.4348 17.0993 17.5595C18.9746 15.6841 20.0282 13.1406 20.0282 10.4884C20.0282 7.83624 18.9746 5.2927 17.0993 3.41734C15.2239 1.54197 12.6804 0.488403 10.0282 0.488403V0.488403ZM10.0282 18.4884H3.43819L4.36819 17.5584C4.55444 17.371 4.65898 17.1176 4.65898 16.8534C4.65898 16.5892 4.55444 16.3358 4.36819 16.1484C3.05877 14.8404 2.24336 13.1189 2.06088 11.2772C1.87839 9.43545 2.34013 7.58741 3.36741 6.04793C4.3947 4.50844 5.92398 3.37276 7.6947 2.83438C9.46543 2.29599 11.368 2.38821 13.0784 3.09532C14.7888 3.80243 16.201 5.08068 17.0746 6.71229C17.9482 8.34391 18.2291 10.2279 17.8693 12.0434C17.5096 13.8589 16.5315 15.4934 15.1017 16.6686C13.672 17.8438 11.8789 18.4869 10.0282 18.4884V18.4884ZM15.0282 9.4884H5.02819C4.76297 9.4884 4.50862 9.59376 4.32108 9.7813C4.13354 9.96883 4.02819 10.2232 4.02819 10.4884C4.02819 10.7536 4.13354 11.008 4.32108 11.1955C4.50862 11.383 4.76297 11.4884 5.02819 11.4884H15.0282C15.2934 11.4884 15.5478 11.383 15.7353 11.1955C15.9228 11.008 16.0282 10.7536 16.0282 10.4884C16.0282 10.2232 15.9228 9.96883 15.7353 9.7813C15.5478 9.59376 15.2934 9.4884 15.0282 9.4884ZM13.0282 13.4884H7.02819C6.76297 13.4884 6.50862 13.5938 6.32108 13.7813C6.13354 13.9688 6.02819 14.2232 6.02819 14.4884C6.02819 14.7536 6.13354 15.008 6.32108 15.1955C6.50862 15.383 6.76297 15.4884 7.02819 15.4884H13.0282C13.2934 15.4884 13.5478 15.383 13.7353 15.1955C13.9228 15.008 14.0282 14.7536 14.0282 14.4884C14.0282 14.2232 13.9228 13.9688 13.7353 13.7813C13.5478 13.5938 13.2934 13.4884 13.0282 13.4884ZM7.02819 7.4884H13.0282C13.2934 7.4884 13.5478 7.38305 13.7353 7.19551C13.9228 7.00797 14.0282 6.75362 14.0282 6.4884C14.0282 6.22319 13.9228 5.96883 13.7353 5.7813C13.5478 5.59376 13.2934 5.4884 13.0282 5.4884H7.02819C6.76297 5.4884 6.50862 5.59376 6.32108 5.7813C6.13354 5.96883 6.02819 6.22319 6.02819 6.4884C6.02819 6.75362 6.13354 7.00797 6.32108 7.19551C6.50862 7.38305 6.76297 7.4884 7.02819 7.4884V7.4884Z" fill="white"/>
</svg>
