<svg width="19" height="28" viewBox="0 0 19 28" fill="none" xmlns="http://www.w3.org/2000/svg">
<path fill-rule="evenodd" clip-rule="evenodd" d="M7.58051 0H10.5805V22.36L15.4742 17.4662C16.06 16.8805 17.0098 16.8805 17.5956 17.4662C18.1813 18.0521 18.1813 19.0018 17.5956 19.5876L10.2151 26.9681C10.1882 26.9998 10.1598 27.0307 10.1298 27.0607C9.83601 27.3545 9.45057 27.5009 9.0655 27.5C8.6804 27.5009 8.29499 27.3545 8.00117 27.0607C7.97123 27.0307 7.94282 26.9998 7.91593 26.9681L0.439339 19.4915C-0.146446 18.9057 -0.146446 17.9559 0.439339 17.3702C1.02512 16.7844 1.97486 16.7844 2.56065 17.3702L7.58051 22.39V0Z" fill="#EF4445"/>
</svg>
