<svg width="100%" height="100%" viewBox="0 0 20 21" fill="none" xmlns="http://www.w3.org/2000/svg">
<path d="M13.646 11.1923C14.6264 10.421 15.342 9.36322 15.6933 8.16624C16.0445 6.96926 16.014 5.69257 15.6058 4.51377C15.1977 3.33497 14.4323 2.31269 13.4161 1.58916C12.3999 0.865621 11.1835 0.476807 9.93603 0.476807C8.68858 0.476807 7.47215 0.865621 6.45596 1.58916C5.43978 2.31269 4.67438 3.33497 4.26624 4.51377C3.85811 5.69257 3.82754 6.96926 4.17879 8.16624C4.53004 9.36322 5.24564 10.421 6.22603 11.1923C4.54611 11.8653 3.08032 12.9817 1.98492 14.4222C0.88953 15.8628 0.205595 17.5736 0.00603184 19.3723C-0.00841357 19.5036 0.00314838 19.6365 0.0400573 19.7634C0.0769662 19.8902 0.138499 20.0086 0.221143 20.1116C0.388051 20.3198 0.630815 20.4531 0.896032 20.4823C1.16125 20.5115 1.42719 20.4341 1.63536 20.2672C1.84352 20.1003 1.97686 19.8575 2.00603 19.5923C2.22562 17.6375 3.15772 15.8321 4.62425 14.5211C6.09078 13.2101 7.98893 12.4853 9.95603 12.4853C11.9231 12.4853 13.8213 13.2101 15.2878 14.5211C16.7543 15.8321 17.6864 17.6375 17.906 19.5923C17.9332 19.838 18.0505 20.065 18.2351 20.2293C18.4198 20.3937 18.6588 20.4838 18.906 20.4823H19.016C19.2782 20.4521 19.5178 20.3196 19.6826 20.1136C19.8474 19.9075 19.9241 19.6447 19.896 19.3823C19.6955 17.5785 19.0079 15.8633 17.9069 14.4205C16.8059 12.9777 15.3329 11.8618 13.646 11.1923V11.1923ZM9.93603 10.4823C9.14491 10.4823 8.37155 10.2477 7.71375 9.80818C7.05595 9.36866 6.54326 8.74394 6.24051 8.01304C5.93776 7.28213 5.85855 6.47787 6.01289 5.70194C6.16723 4.92602 6.54819 4.21329 7.1076 3.65388C7.66701 3.09447 8.37975 2.7135 9.15567 2.55916C9.9316 2.40482 10.7359 2.48403 11.4668 2.78678C12.1977 3.08953 12.8224 3.60222 13.2619 4.26002C13.7014 4.91782 13.936 5.69118 13.936 6.4823C13.936 7.54317 13.5146 8.56058 12.7645 9.31073C12.0143 10.0609 10.9969 10.4823 9.93603 10.4823Z" fill="white"/>
</svg>
