<svg width="20" height="21" viewBox="0 0 20 21" fill="none" xmlns="http://www.w3.org/2000/svg">
<path d="M18.3332 8.53526C18.2806 8.38283 18.1849 8.24895 18.0577 8.14985C17.9305 8.05074 17.7772 7.99067 17.6166 7.97693L12.8749 7.28526L10.7499 2.97693C10.6817 2.83604 10.5751 2.71721 10.4425 2.63407C10.3098 2.55093 10.1564 2.50684 9.9999 2.50684C9.84335 2.50684 9.68997 2.55093 9.55733 2.63407C9.42468 2.71721 9.31814 2.83604 9.2499 2.97693L7.1249 7.27693L2.38323 7.97693C2.229 7.99885 2.084 8.06356 1.96469 8.16373C1.84538 8.26389 1.75653 8.39549 1.70823 8.54359C1.66402 8.68832 1.66005 8.84236 1.69676 8.98917C1.73346 9.13598 1.80945 9.27003 1.91657 9.37693L5.35823 12.7103L4.5249 17.4436C4.49515 17.5998 4.51073 17.7613 4.56979 17.909C4.62886 18.0566 4.72894 18.1843 4.85823 18.2769C4.98425 18.367 5.13288 18.4202 5.28744 18.4305C5.442 18.4408 5.59638 18.4078 5.73323 18.3353L9.9999 16.1103L14.2499 18.3436C14.3669 18.4096 14.4989 18.444 14.6332 18.4436C14.8098 18.4442 14.9819 18.3888 15.1249 18.2853C15.2542 18.1926 15.3543 18.065 15.4133 17.9173C15.4724 17.7696 15.488 17.6082 15.4582 17.4519L14.6249 12.7186L18.0666 9.38526C18.1869 9.28333 18.2758 9.14935 18.323 8.99889C18.3702 8.84842 18.3738 8.68766 18.3332 8.53526ZM13.2082 11.8686C13.1105 11.9631 13.0374 12.0801 12.9953 12.2094C12.9531 12.3387 12.9433 12.4763 12.9666 12.6103L13.5666 16.1019L10.4332 14.4353C10.3127 14.3711 10.1782 14.3375 10.0416 14.3375C9.90497 14.3375 9.77047 14.3711 9.6499 14.4353L6.51657 16.1019L7.11657 12.6103C7.13985 12.4763 7.12999 12.3387 7.08787 12.2094C7.04575 12.0801 6.97263 11.9631 6.8749 11.8686L4.3749 9.36859L7.88323 8.86026C8.01823 8.84148 8.14656 8.78988 8.25698 8.70997C8.3674 8.63006 8.45653 8.52429 8.51657 8.40193L9.9999 5.22693L11.5666 8.41026C11.6266 8.53263 11.7157 8.6384 11.8262 8.7183C11.9366 8.79821 12.0649 8.84982 12.1999 8.86859L15.7082 9.37693L13.2082 11.8686Z" fill="white"/>
</svg>
