<svg width="19" height="21" viewBox="0 0 19 21" fill="none" xmlns="http://www.w3.org/2000/svg">
<path d="M5.89166 12.7606C5.75093 12.622 5.57239 12.5282 5.37848 12.4908C5.18457 12.4535 4.98394 12.4742 4.80182 12.5506C4.67775 12.5955 4.56508 12.6672 4.47176 12.7605C4.37845 12.8538 4.30678 12.9665 4.26182 13.0906C4.19695 13.2427 4.17081 13.4085 4.18574 13.5731C4.20066 13.7378 4.25618 13.8962 4.34732 14.0342C4.43846 14.1721 4.56239 14.2853 4.70801 14.3637C4.85363 14.442 5.01639 14.483 5.18174 14.483C5.34708 14.483 5.50985 14.442 5.65546 14.3637C5.80108 14.2853 5.92501 14.1721 6.01615 14.0342C6.1073 13.8962 6.16281 13.7378 6.17773 13.5731C6.19266 13.4085 6.16652 13.2427 6.10166 13.0906C6.05106 12.9694 5.98003 12.8577 5.89166 12.7606ZM13.8917 12.7606C13.6983 12.5821 13.4448 12.483 13.1817 12.483C12.9186 12.483 12.6651 12.5821 12.4717 12.7606C12.3834 12.8578 12.3123 12.9694 12.2617 13.0907C12.1837 13.2725 12.162 13.4735 12.1994 13.6678C12.2368 13.8621 12.3317 14.0407 12.4717 14.1806C12.5688 14.269 12.6805 14.34 12.8017 14.3906C12.9214 14.4434 13.0508 14.4707 13.1816 14.4707C13.3124 14.4707 13.4418 14.4434 13.5615 14.3906C13.6826 14.3398 13.7942 14.2688 13.8916 14.1806C14.0316 14.0408 14.1264 13.8622 14.1638 13.6679C14.2013 13.4736 14.1796 13.2726 14.1016 13.0907C14.051 12.9695 13.98 12.8578 13.8917 12.7606V12.7606ZM16.4911 17.3659C17.199 16.8016 17.7394 16.0546 18.0539 15.2057C18.3684 14.3567 18.445 13.438 18.2754 12.5487L16.7754 4.54866C16.5604 3.40274 15.9517 2.36799 15.0545 1.62333C14.1574 0.878673 13.0282 0.470921 11.8623 0.470581H6.501C5.33507 0.470932 4.20592 0.878694 3.30879 1.62336C2.41166 2.36803 1.80295 3.40278 1.58791 4.5487L0.0879054 12.5487C-0.0816118 13.438 -0.00500166 14.3567 0.309465 15.2057C0.623932 16.0547 1.16431 16.8016 1.87227 17.3659L0.474655 18.7636C0.380426 18.8561 0.305463 18.9664 0.254094 19.0881C0.202726 19.2097 0.17597 19.3404 0.175372 19.4725C0.174774 19.6045 0.200345 19.7354 0.25061 19.8575C0.300874 19.9797 0.374836 20.0906 0.468223 20.184C0.56161 20.2774 0.672573 20.3514 0.794703 20.4016C0.916834 20.4519 1.04771 20.4775 1.17978 20.4769C1.31185 20.4763 1.44249 20.4495 1.56416 20.3981C1.68583 20.3468 1.79612 20.2718 1.88866 20.1776L3.7578 18.3084C4.16376 18.4144 4.58144 18.4688 5.001 18.4706H13.3623C13.7819 18.4689 14.1995 18.4144 14.6055 18.3085L16.4747 20.1776C16.6627 20.3623 16.9162 20.4653 17.1798 20.4641C17.4434 20.4629 17.6959 20.3576 17.8823 20.1712C18.0687 19.9848 18.1739 19.7323 18.1751 19.4687C18.1763 19.2051 18.0734 18.9517 17.8887 18.7636L16.4911 17.3659ZM3.55275 4.91785C3.68204 4.23032 4.04738 3.60953 4.58568 3.16271C5.12397 2.71588 5.80141 2.47108 6.501 2.47058H11.8623C12.5619 2.47108 13.2393 2.71588 13.7776 3.16271C14.3159 3.60953 14.6813 4.23032 14.8106 4.91785L15.1572 6.76678C14.4107 7.61634 13.4915 8.29694 12.4611 8.76318C11.4306 9.22942 10.3127 9.47058 9.18165 9.47058C8.05066 9.47058 6.93266 9.22942 5.90224 8.76318C4.87182 8.29694 3.95266 7.61634 3.20607 6.76678L3.55275 4.91785ZM15.6699 15.3866C15.389 15.7262 15.0364 15.9995 14.6375 16.1869C14.2385 16.3743 13.8031 16.4712 13.3623 16.4706H5.001C4.56026 16.4704 4.12498 16.3732 3.72608 16.1858C3.32719 15.9983 2.97448 15.7253 2.69303 15.3862C2.41157 15.047 2.20829 14.65 2.09763 14.2234C1.98697 13.7968 1.97164 13.3511 2.05275 12.9179L2.76381 9.12549C4.5594 10.6399 6.83269 11.4706 9.18165 11.4706C11.5306 11.4706 13.8039 10.6399 15.5995 9.12549L16.3106 12.9179C16.3924 13.3511 16.3774 13.7971 16.2667 14.2239C16.1559 14.6507 15.9521 15.0478 15.6699 15.3866V15.3866Z" fill="white"/>
</svg>
