<svg width="100%" height="100%" viewBox="0 0 291 270" fill="none" xmlns="http://www.w3.org/2000/svg">
<path d="M13.5989 154.262L13.3012 151.714C14.189 151.606 15.744 151.273 16.5343 150.842C18.5153 149.207 35.9741 131.875 47.5722 120.356C56.0604 111.929 60.8998 107.13 61.6388 106.464C64.4922 103.916 71.0713 102.353 75.3052 105.598C76.5727 106.566 78.102 108.171 79.8726 110.032C82.3513 112.636 86.1027 116.568 87.9297 117.009C88.7559 117.209 89.9414 117.337 91.2808 117.414C84.5375 110.914 60.2122 86.579 58.2723 84.4618C56.8097 82.8624 54.6697 82.5394 51.6829 82.5394H51.3493C48.4857 82.5394 47.3105 82.5394 45.191 84.5746C44.2006 85.5281 40.5004 89.2395 35.815 93.9352C26.7417 103.029 14.3122 115.486 11.8027 117.711C7.67664 121.361 2.58577 122.719 2.37536 122.776L1.75439 120.397C1.75439 120.397 9.15976 117.198 10.5762 115.784C11.9926 114.369 39.8435 84.8975 41.6141 83.4827C43.3846 82.0678 46.9256 79.2381 50.7592 79.356C54.5927 79.4739 56.5993 78.8844 64.9797 87.9631C73.3602 97.0418 95.3094 118.495 95.3094 118.495C95.3094 118.495 93.4209 122.033 88.3454 120.853C83.2699 119.674 75.4848 107.653 73.5962 107.653C71.7077 107.653 68.0486 105.059 65.0977 108.007C62.1469 110.955 20.6091 151.975 18.8386 153.036C17.0681 154.098 13.6091 154.262 13.6091 154.262" fill="#A6B79F"/>
<path d="M103.505 119.905C103.541 121.294 102.468 122.458 101.078 122.535C100.041 122.591 90.8189 123.058 86.6467 122.043C83.5932 121.299 80.3447 118.085 76.0852 113.62C74.5302 111.99 73.0574 110.447 72.1131 109.719C70.0757 108.161 66.273 109.191 64.99 110.339C64.3126 110.944 57.9028 117.306 51.1184 124.047C25.1098 149.874 20.1472 154.672 19.1978 155.241C17.1912 156.445 14.1634 156.82 13.8247 156.861L13.2345 151.77L13.527 154.318C13.527 154.318 17.34 153.682 19.8188 152.15C19.8188 152.15 64.1894 107.71 65.6058 106.884C67.0222 106.059 73.278 105.116 74.6944 107.12C76.1109 109.125 82.4847 116.906 84.7274 117.967C86.97 119.029 96.5257 118.085 103.505 119.921" fill="#A6B79F"/>
<path d="M1.67741 120.443L1 117.865C1.03592 117.855 5.14146 116.737 8.32326 113.923C10.7147 111.811 23.5856 98.9078 32.1046 90.3673C36.8106 85.6511 40.5261 81.9243 41.5525 80.9349C45.1654 77.4542 48.1367 77.4593 51.2826 77.4593H51.6111C55.3009 77.4593 59.1088 77.895 61.9929 81.0477C64.564 83.862 94.5396 113.718 96.11 115.035C96.577 115.425 96.9516 115.789 97.2801 116.112C98.2449 117.055 98.6092 117.409 100.939 117.409C102.33 117.409 103.464 118.516 103.505 119.9C103.505 119.9 99.184 119.715 96.7053 119.715C94.2266 119.715 61.4233 84.59 60.243 83.1751C59.0626 81.7603 53.8691 79.8738 51.1543 80.1096C48.4395 80.3454 44.6624 81.4065 41.8296 85.0616C38.9968 88.7167 12.3262 115.594 9.84744 117.009C7.36872 118.424 1.67228 120.443 1.67228 120.443H1.67741Z" fill="#A6B79F"/>
<path d="M135.959 11.6631L137.653 9.97656L190.163 62.5315C190.199 62.5674 190.235 62.6033 190.271 62.6443C190.676 63.1056 191.097 63.5567 191.502 64.0027C193.909 66.6274 196.183 69.1034 195.885 71.9178C195.798 72.738 195.839 74.199 195.885 75.7471C195.993 79.7405 196.116 84.267 194.592 86.8404C193.37 88.9012 184.728 97.6775 170.21 112.139C167.824 114.517 165.94 116.394 165.381 116.978C162.958 119.5 160.454 122.115 157.077 122.422C155.702 122.545 142.426 122.54 122.324 122.52C111.921 122.509 102.094 122.494 101.042 122.54C99.6972 122.591 99.0557 123.227 97.7317 124.662L97.4084 125.011C95.1144 127.466 37.7702 184.553 35.4301 186.711C32.1559 189.725 27.4243 190.382 26.8906 190.443L26.598 188.059C26.598 188.059 30.6471 186.701 33.2028 184.891C35.7585 183.082 81.3608 136.684 81.3608 136.684C81.3608 136.684 98.835 120.079 100.221 119.018C101.606 117.957 154.876 119.977 157.539 118.911C160.203 117.844 160.947 117.316 161.799 116.25C162.651 115.184 190.881 85.8152 191.738 84.6413C192.595 83.4673 193.334 72.5073 193.232 70.8054C193.129 69.1034 135.975 11.6682 135.975 11.6682M26.5929 188.054L26.2593 185.353C27.2498 185.225 30.2058 184.543 31.9455 182.938C35.1992 179.934 93.3439 121.838 93.6518 121.51L93.9597 121.176C95.4531 119.562 97.3109 117.552 100.836 117.414C101.935 117.373 109.72 117.378 122.329 117.393C136.185 117.409 155.168 117.429 156.615 117.316C157.97 117.193 159.5 115.696 161.67 113.436C162.266 112.815 164.077 111.011 166.582 108.514C173.243 101.876 188.839 86.3381 190.173 84.2209C190.938 82.9291 190.82 78.5256 190.748 75.8906C190.702 74.1169 190.661 72.5842 190.773 71.4359C190.65 70.6669 188.813 68.6728 187.715 67.4733C187.304 67.0221 186.883 66.5659 186.473 66.1045L134.02 13.6009L135.959 11.6682C135.959 11.6682 189.383 64.7204 191.405 67.4886C193.427 70.2568 193.96 70.6823 193.853 74.404C193.745 78.1257 194.279 82.278 192.683 85.2615C191.087 88.2451 160.613 118.357 159.335 119.208C158.057 120.059 154.86 120.059 153.69 120.059C152.52 120.059 104.152 119.208 102.125 119.741C100.097 120.274 97.1158 122.719 95.412 124.421C93.7082 126.123 34.1522 184.656 33.1926 185.399C32.2329 186.142 26.5878 188.054 26.5878 188.054H26.5929Z" fill="#A6B79F"/>
<path d="M175.85 54.0577C173.469 53.9705 163.841 54.0372 163.841 54.0372L163.892 56.8361C169.327 56.7336 175.922 56.8669 177.518 57.2565C178.801 58.2202 179.139 58.7585 179.139 58.7688C179.139 58.7688 179.083 58.6714 179.016 58.4766L181.649 57.6L175.85 54.0577Z" fill="#A6B79F"/>
<path d="M163.836 54.0372L163.79 51.7098C178.236 51.433 179.683 52.489 180.304 52.9401C182.911 54.8369 183.666 56.2056 183.881 56.8515L181.644 57.5948C181.644 57.5948 179.719 54.7395 177.256 54.7395C174.793 54.7395 163.836 54.032 163.836 54.032V54.0372Z" fill="#A6B79F"/>
<path d="M124.525 120.469L126.64 122.34C124.582 123.693 123.617 126.036 123.571 126.374L123.36 138.662C123.36 139.093 123.345 143.317 122.868 145.352C122.319 147.695 120.795 149.515 120.62 149.72C120.574 149.776 120.523 149.827 120.471 149.879L84.0859 185.696L81.8997 183.482C81.8997 183.482 119.127 147.695 119.732 146.485C120.338 145.275 120.856 140.621 120.856 138.985C120.856 137.35 120.769 126.226 121.462 124.585C122.154 122.945 124.525 120.474 124.525 120.474V120.469Z" fill="#A6B79F"/>
<path d="M81.9869 183.476L80.5705 182.041L116.858 146.321C117.13 145.978 117.746 145.07 117.957 144.183C118.203 143.138 118.311 140.303 118.311 138.626L118.521 126.185C118.521 126.144 118.521 126.108 118.521 126.067C118.629 124.334 119.753 120.782 123.284 118.47L124.602 120.474C124.602 120.474 122.057 123.55 122.057 125.534C122.057 127.518 121.282 144.675 120.333 146.916C119.383 149.156 81.9818 183.482 81.9818 183.482L81.9869 183.476Z" fill="#A6B79F"/>
<path d="M196.229 2.22559H200.021C200.021 3.2406 200.139 104.111 200.139 106.823C200.139 110.75 197.466 113.431 196.742 114.087L83.275 226.835L80.5192 224.072C80.5192 224.072 194.653 112.959 195.269 111.319C195.885 109.678 197.732 108.448 197.732 106.802C197.732 105.157 196.224 2.23071 196.224 2.23071L196.229 2.22559Z" fill="#F0C99A"/>
<path d="M81.1299 224.318L78.8154 221.996L192.498 109.032L192.554 108.986C192.842 108.72 193.555 107.874 193.555 107.074C193.555 104.367 193.437 3.49688 193.437 2.48187H196.829L198.287 106.577C198.287 106.577 198.076 108.627 197.435 109.55C196.793 110.473 81.1248 224.318 81.1248 224.318H81.1299Z" fill="#E8AB65"/>
<path d="M81.3608 224.061L194.9 111.242C194.9 111.242 197.168 109.335 197.168 106.597C197.168 103.86 197.05 2 197.05 2" stroke="#CE833C" stroke-width="3" stroke-linecap="round" stroke-linejoin="round"/>
<path d="M255.508 267.891L253.224 267.871L253.342 254.168C253.342 254.097 253.342 254.127 253.342 254.091C253.326 253.845 253.183 252.559 251.818 250.98C250.022 248.904 222.945 222.39 212.564 212.25C211.655 211.476 206.847 207.001 206.708 198.471L209.094 198.435C209.094 198.435 210.372 205.837 211.784 207.37C213.19 208.903 254.609 249.514 255.764 251.046C256.914 252.579 255.508 267.886 255.508 267.886V267.891Z" fill="#CE6661"/>
<path d="M255.508 267.891L258.356 267.917L258.474 254.23C258.484 253.594 258.376 250.723 255.703 247.632C253.434 245.008 219.897 212.245 216.079 208.518C216.023 208.462 215.946 208.395 215.884 208.349C215.725 208.221 211.948 205.074 211.84 198.399L209.094 198.44C209.094 198.44 208.966 203.93 211.399 206.868C213.831 209.805 253.332 249.396 255.123 251.18C256.914 252.964 255.508 267.891 255.508 267.891Z" fill="#D98A87"/>
<path d="M196.07 238.482H193.842C193.842 237.913 193.842 224.543 194.084 220.232C194.386 214.808 197.645 211.697 202.982 207.216C207.083 203.772 206.744 198.886 206.729 198.681C206.729 198.614 206.718 198.532 206.718 198.466C206.718 197.979 206.6 149.571 206.6 145.326C206.6 142.645 204.604 141.389 204.522 141.338C204.322 141.225 204.173 141.102 204.009 140.938L84.6299 21.0852L86.4876 19.2397C86.4876 19.2397 205.476 138.15 208.048 140.723C210.624 143.296 209.366 197.963 209.064 200.839C208.761 203.715 206.339 208.252 201.792 212.338C197.245 216.423 196.644 215.06 196.49 220.206C196.336 225.348 196.064 238.487 196.064 238.487L196.07 238.482Z" fill="#EDC7C6"/>
<path d="M86.4722 19.2244L88.253 17.4558L207.427 137.094C209.166 138.237 211.722 141.036 211.722 145.306C211.722 149.576 211.835 196 211.84 198.343C211.912 199.455 212.081 206.242 206.272 211.123C201.027 215.531 199.364 217.397 199.19 220.499C198.959 224.666 198.954 238.328 198.954 238.466H196.049C196.049 238.466 196.737 219.289 197.029 216.341C197.322 213.394 205.774 209.636 208.135 204.038C210.495 198.44 209.941 146.224 208.94 142.522C208.802 142.005 207.114 139.636 203.721 136.391C178.847 112.564 86.4619 19.2244 86.4619 19.2244H86.4722Z" fill="#CE6661"/>
<path d="M176.224 85.7126L173.715 88.2758L189.552 103.742C190.117 104.311 192.852 106.813 197.214 106.813C201.576 106.813 204.722 104.116 205.045 103.809C205.076 103.783 205.102 103.752 205.133 103.726L291 17.2303L288.362 14.6158C288.362 14.6158 202.187 101.435 200.832 101.681C199.477 101.927 196.398 103.28 194.304 102.05C192.21 100.82 176.219 85.7075 176.219 85.7075L176.224 85.7126Z" fill="#BFC9E4"/>
<path d="M176.266 85.5025L178.78 82.9342L194.643 98.4208C194.71 98.4823 194.689 98.4567 194.725 98.4977C194.905 98.6617 195.839 99.4255 197.265 99.4255C198.82 99.4255 200.001 98.5131 200.149 98.3952L285.945 11.9707L288.408 14.4108L201.371 101.845C201.371 101.845 199.031 102.952 197.43 102.829C195.828 102.706 194.966 102.46 193.735 101.722C192.503 100.984 176.266 85.5025 176.266 85.5025Z" fill="#7187C0"/>
<path d="M13.4552 154C13.4552 154 16.211 153.682 17.8019 152.729C19.3928 151.775 61.1872 109.919 63.2041 108.12C65.2209 106.32 70.4195 104.941 73.6013 107.376C76.7831 109.811 83.2545 118.29 87.1804 119.244C91.1063 120.197 100.862 119.669 100.862 119.669C96.618 119.669 96.2998 118.29 94.3908 116.701C92.4817 115.112 62.2495 84.913 60.0223 82.4728C57.795 80.0327 54.7158 79.72 51.5341 79.72C48.3523 79.72 46.2276 79.6124 43.2614 82.4728C40.2951 85.3333 13.6656 112.246 9.9552 115.532C6.24481 118.818 1.5799 120.033 1.5799 120.033" stroke="#3E7745" stroke-width="3" stroke-linecap="round" stroke-linejoin="round"/>
<path d="M26.5057 187.593C26.5057 187.593 30.8524 187.065 33.6134 184.522C36.3744 181.98 93.97 124.55 95.4582 122.96C96.9465 121.371 98.2141 119.782 100.867 119.674C103.52 119.567 154.439 119.782 156.769 119.567C159.104 119.357 161.013 117.45 163.451 114.907C165.889 112.364 190.609 88.0963 192.303 85.2359C194.001 82.3754 192.934 74.4091 193.257 71.3538C193.468 69.3392 190.712 66.7965 188.269 64.0437L135.759 11.4888" stroke="#3E7745" stroke-width="3" stroke-linecap="round" stroke-linejoin="round"/>
<path d="M163.769 53.9705C163.769 53.9705 177.353 53.7142 178.729 54.7138C181.064 56.4106 181.382 57.3641 181.382 57.3641" stroke="#3E7745" stroke-width="3" stroke-linecap="round" stroke-linejoin="round"/>
<path d="M82.3 183.564L118.685 147.746C118.685 147.746 119.958 146.265 120.384 144.46C120.81 142.656 120.81 138.314 120.81 138.314L121.02 125.918C121.02 125.918 121.231 122.53 124.628 120.3" stroke="#3E7745" stroke-width="3" stroke-linecap="round" stroke-linejoin="round"/>
<path d="M288.29 14.5543L202.423 101.045C202.423 101.045 200.278 103.07 197.055 103.07C193.832 103.07 191.928 101.045 191.928 101.045L176.065 85.5588" stroke="#30467C" stroke-width="3" stroke-linecap="round" stroke-linejoin="round"/>
<path d="M86.2516 19.1526L205.636 139.001C205.636 139.001 208.976 140.908 208.976 145.193C208.976 149.479 209.094 198.327 209.094 198.327C209.094 198.327 209.69 204.643 204.445 209.052C199.2 213.46 196.691 215.962 196.455 220.253C196.218 224.543 196.218 238.359 196.218 238.359" stroke="#B13230" stroke-width="3" stroke-linecap="round" stroke-linejoin="round"/>
<path d="M255.605 267.784L255.723 254.081C255.723 254.081 255.841 251.815 253.578 249.196C251.31 246.576 214.103 210.241 214.103 210.241C214.103 210.241 209.223 206.427 209.094 198.327" stroke="#B13230" stroke-width="3" stroke-linecap="round" stroke-linejoin="round"/>
<path opacity="0.7" d="M80.8072 130.898H75.4752V110.221H85.8292C90.4792 110.221 93.0212 113.352 93.0212 117.103C93.0212 120.823 90.4792 123.892 85.8292 123.892H80.8072V130.898ZM87.5962 117.072C87.5962 115.646 86.5422 114.716 85.1162 114.716H80.8072V119.366H85.1162C86.5422 119.366 87.5962 118.467 87.5962 117.072ZM100.045 130.898H95.2711V110.221H100.045V130.898ZM117.115 130.898H112.341V129.41C111.411 130.526 109.613 131.27 107.691 131.27C105.397 131.27 102.545 129.72 102.545 126.341C102.545 122.714 105.397 121.629 107.691 121.629C109.675 121.629 111.442 122.249 112.341 123.365V121.474C112.341 120.172 111.225 119.304 109.303 119.304C107.815 119.304 106.265 119.862 105.056 120.885L103.351 117.878C105.273 116.235 107.846 115.553 110.14 115.553C113.736 115.553 117.115 116.886 117.115 121.536V130.898ZM112.341 127.054V125.721C111.845 125.039 110.729 124.667 109.675 124.667C108.404 124.667 107.288 125.225 107.288 126.403C107.288 127.581 108.404 128.139 109.675 128.139C110.729 128.139 111.845 127.767 112.341 127.054ZM119.588 123.396C119.588 118.715 123.091 115.553 127.772 115.553C130.996 115.553 133.011 116.979 133.91 118.312L130.81 121.195C130.221 120.327 129.26 119.769 127.989 119.769C126.005 119.769 124.486 121.133 124.486 123.396C124.486 125.659 126.005 127.054 127.989 127.054C129.26 127.054 130.221 126.434 130.81 125.597L133.91 128.511C133.011 129.813 130.996 131.27 127.772 131.27C123.091 131.27 119.588 128.108 119.588 123.396ZM135.088 123.396C135.088 119.056 138.374 115.553 143.055 115.553C147.488 115.553 150.712 118.808 150.712 123.892V124.915H140.048C140.327 126.31 141.629 127.581 143.861 127.581C145.194 127.581 146.682 127.054 147.519 126.31L149.534 129.286C148.046 130.619 145.566 131.27 143.272 131.27C138.653 131.27 135.088 128.263 135.088 123.396ZM143.055 119.242C140.978 119.242 140.172 120.73 139.986 121.815H146.155C146.031 120.761 145.256 119.242 143.055 119.242ZM168.005 130.898H163.231V122.187C163.231 120.358 162.27 119.769 160.751 119.769C159.356 119.769 158.426 120.544 157.868 121.226V130.898H153.094V110.221H157.868V117.754C158.767 116.7 160.534 115.553 163.045 115.553C166.455 115.553 168.005 117.475 168.005 120.234V130.898ZM178.63 131.27C173.546 131.27 170.477 127.612 170.477 123.396C170.477 119.18 173.546 115.553 178.63 115.553C183.776 115.553 186.814 119.18 186.814 123.396C186.814 127.612 183.776 131.27 178.63 131.27ZM178.63 127.054C180.738 127.054 181.916 125.411 181.916 123.396C181.916 121.412 180.738 119.769 178.63 119.769C176.553 119.769 175.406 121.412 175.406 123.396C175.406 125.411 176.553 127.054 178.63 127.054ZM194.105 130.898H189.331V110.221H194.105V130.898ZM212.383 130.898H207.64V129.162C206.4 130.588 204.881 131.27 203.207 131.27C199.518 131.27 196.573 128.48 196.573 123.396C196.573 118.498 199.456 115.553 203.207 115.553C204.85 115.553 206.431 116.204 207.64 117.692V110.221H212.383V130.898ZM207.64 125.69V121.102C207.02 120.296 205.78 119.769 204.757 119.769C202.866 119.769 201.471 121.164 201.471 123.396C201.471 125.628 202.866 127.054 204.757 127.054C205.78 127.054 207.02 126.496 207.64 125.69ZM214.889 123.396C214.889 119.056 218.175 115.553 222.856 115.553C227.289 115.553 230.513 118.808 230.513 123.892V124.915H219.849C220.128 126.31 221.43 127.581 223.662 127.581C224.995 127.581 226.483 127.054 227.32 126.31L229.335 129.286C227.847 130.619 225.367 131.27 223.073 131.27C218.454 131.27 214.889 128.263 214.889 123.396ZM222.856 119.242C220.779 119.242 219.973 120.73 219.787 121.815H225.956C225.832 120.761 225.057 119.242 222.856 119.242ZM237.638 130.898H232.864V115.925H237.638V117.816C238.63 116.607 240.521 115.553 242.319 115.553V120.172C242.04 120.079 241.637 120.017 241.141 120.017C239.901 120.017 238.258 120.544 237.638 121.412V130.898Z" fill="white"/>
</svg>
