<svg width="100%" height="100%" viewBox="0 0 560 131" fill="none" xmlns="http://www.w3.org/2000/svg">
<path d="M0.782227 9.27832L2.47754 1.37695H38.624L36.9287 9.27832H23.5781L15.7979 46H6.41309L14.1934 9.27832H0.782227Z" fill="white"/>
<path d="M61.6924 43.6084C61.7126 42.3571 61.8538 41.0755 62.1162 39.7637L62.9336 35.6162C63.4987 32.7705 63.3776 30.8734 62.5703 29.9248C61.7832 28.9762 60.0173 28.502 57.2725 28.502H47.6455L43.9521 46H34.8398L44.3154 1.37695H66.2031C69.3112 1.4375 71.6322 1.82096 73.166 2.52734C74.6999 3.23372 75.9108 4.27311 76.7988 5.64551C77.5254 6.77572 78.0199 8.02702 78.2822 9.39941C78.5648 10.7718 78.5244 12.3359 78.1611 14.0918C77.6969 16.2109 76.708 18.2998 75.1943 20.3584C73.7008 22.3968 71.6322 23.8398 68.9883 24.6875C70.8652 25.515 72.0661 26.6956 72.5908 28.2295C73.1357 29.7432 73.0752 32.0641 72.4092 35.1924L71.7734 38.1895C71.3496 40.2279 71.1377 41.6104 71.1377 42.3369C71.1377 43.4873 71.5212 44.335 72.2881 44.8799L72.0762 46H61.8135C61.7327 45.0111 61.6924 44.2139 61.6924 43.6084ZM62.6006 9.12695H51.7627L49.2197 21.1152H59.7852C61.8841 21.1152 63.5088 20.873 64.6592 20.3887C66.6976 19.541 67.9893 17.8659 68.5342 15.3633C69.0993 12.6589 68.5846 10.8424 66.9902 9.91406C66.082 9.38932 64.6188 9.12695 62.6006 9.12695Z" fill="white"/>
<path d="M112.219 1.37695L118.546 46H108.435L107.496 36.8271H91.0576L86.0322 46H76.2842L101.684 1.37695H112.219ZM104.681 11.5791L95.2051 29.1377H106.527L104.681 11.5791Z" fill="white"/>
<path d="M150.999 46L139.495 14.3037L132.774 46H124.086L133.562 1.37695H143.34L154.48 32.5283L161.11 1.37695H169.799L160.323 46H150.999Z" fill="white"/>
<path d="M189.961 18.7539L197.257 20.6006C200.446 21.4079 202.757 22.4876 204.189 23.8398C206.41 25.9388 207.096 28.9762 206.248 32.9521C205.38 37.029 203.1 40.4196 199.406 43.124C195.713 45.8083 191.021 47.1504 185.329 47.1504C179.517 47.1504 175.228 45.8285 172.463 43.1846C169.698 40.5205 168.81 36.8675 169.799 32.2256H178.699C178.558 34.264 178.79 35.7878 179.396 36.7969C180.526 38.6335 182.927 39.5518 186.601 39.5518C188.8 39.5518 190.637 39.3096 192.11 38.8252C194.916 37.8968 196.581 36.1712 197.105 33.6484C197.428 32.1751 197.025 31.0348 195.895 30.2275C194.785 29.4404 192.908 28.7441 190.264 28.1387L185.753 27.0791C181.333 26.0296 178.366 24.8893 176.853 23.6582C174.289 21.5996 173.472 18.3805 174.4 14.001C175.248 10.0049 177.408 6.6849 180.879 4.04102C184.35 1.39714 188.901 0.0751953 194.532 0.0751953C199.235 0.0751953 202.979 1.3265 205.764 3.8291C208.549 6.31152 209.518 9.92415 208.67 14.667H199.709C200.133 11.9827 199.376 10.0755 197.438 8.94531C196.147 8.19857 194.421 7.8252 192.262 7.8252C189.86 7.8252 187.832 8.30957 186.177 9.27832C184.542 10.2471 183.543 11.5993 183.18 13.335C182.837 14.9294 183.291 16.1201 184.542 16.9072C185.329 17.432 187.135 18.0475 189.961 18.7539Z" fill="white"/>
<path d="M209.669 46L219.145 1.37695H228.408L218.933 46H209.669Z" fill="white"/>
<path d="M231.708 9.27832L233.403 1.37695H269.55L267.854 9.27832H254.504L246.724 46H237.339L245.119 9.27832H231.708Z" fill="white"/>
<path d="M291.468 46H282.416L281.962 8.55176C281.8 9.39941 281.558 10.6104 281.235 12.1846C280.933 13.7386 280.68 14.9495 280.479 15.8174L274.091 46H265.402L274.878 1.37695H288.44L289.076 36.4639L304.606 1.37695H318.018L308.542 46H299.854L306.241 15.8174C306.443 14.9495 306.715 13.7386 307.059 12.1846C307.422 10.6104 307.684 9.39941 307.846 8.55176L291.468 46Z" fill="white"/>
<path d="M349.986 1.37695L356.313 46H346.202L345.264 36.8271H328.825L323.8 46H314.052L339.451 1.37695H349.986ZM342.448 11.5791L332.973 29.1377H344.295L342.448 11.5791Z" fill="white"/>
<path d="M361.46 9.27832L363.155 1.37695H399.302L397.606 9.27832H384.256L376.476 46H367.091L374.871 9.27832H361.46Z" fill="white"/>
<path d="M399.362 9.27832L401.058 1.37695H437.204L435.509 9.27832H422.158L414.378 46H404.993L412.773 9.27832H399.362Z" fill="white"/>
<path d="M468.991 37.9775L467.296 46H433.48L442.956 1.37695H475.682L473.986 9.27832H450.373L448.375 18.7539H470.051L468.386 26.5039H446.71L444.288 37.9775H468.991Z" fill="white"/>
<path d="M501.626 43.6084C501.646 42.3571 501.787 41.0755 502.05 39.7637L502.867 35.6162C503.432 32.7705 503.311 30.8734 502.504 29.9248C501.717 28.9762 499.951 28.502 497.206 28.502H487.579L483.886 46H474.773L484.249 1.37695H506.137C509.245 1.4375 511.566 1.82096 513.1 2.52734C514.633 3.23372 515.844 4.27311 516.732 5.64551C517.459 6.77572 517.953 8.02702 518.216 9.39941C518.498 10.7718 518.458 12.3359 518.095 14.0918C517.631 16.2109 516.642 18.2998 515.128 20.3584C513.634 22.3968 511.566 23.8398 508.922 24.6875C510.799 25.515 512 26.6956 512.524 28.2295C513.069 29.7432 513.009 32.0641 512.343 35.1924L511.707 38.1895C511.283 40.2279 511.071 41.6104 511.071 42.3369C511.071 43.4873 511.455 44.335 512.222 44.8799L512.01 46H501.747C501.666 45.0111 501.626 44.2139 501.626 43.6084ZM502.534 9.12695H491.696L489.153 21.1152H499.719C501.818 21.1152 503.442 20.873 504.593 20.3887C506.631 19.541 507.923 17.8659 508.468 15.3633C509.033 12.6589 508.518 10.8424 506.924 9.91406C506.016 9.38932 504.552 9.12695 502.534 9.12695Z" fill="white"/>
<path d="M540.285 18.7539L547.581 20.6006C550.77 21.4079 553.081 22.4876 554.514 23.8398C556.734 25.9388 557.42 28.9762 556.572 32.9521C555.704 37.029 553.424 40.4196 549.73 43.124C546.037 45.8083 541.345 47.1504 535.653 47.1504C529.841 47.1504 525.552 45.8285 522.787 43.1846C520.022 40.5205 519.134 36.8675 520.123 32.2256H529.023C528.882 34.264 529.114 35.7878 529.72 36.7969C530.85 38.6335 533.252 39.5518 536.925 39.5518C539.125 39.5518 540.961 39.3096 542.435 38.8252C545.24 37.8968 546.905 36.1712 547.43 33.6484C547.753 32.1751 547.349 31.0348 546.219 30.2275C545.109 29.4404 543.232 28.7441 540.588 28.1387L536.077 27.0791C531.657 26.0296 528.69 24.8893 527.177 23.6582C524.614 21.5996 523.796 18.3805 524.725 14.001C525.572 10.0049 527.732 6.6849 531.203 4.04102C534.674 1.39714 539.226 0.0751953 544.856 0.0751953C549.559 0.0751953 553.303 1.3265 556.088 3.8291C558.873 6.31152 559.842 9.92415 558.994 14.667H550.033C550.457 11.9827 549.7 10.0755 547.763 8.94531C546.471 8.19857 544.745 7.8252 542.586 7.8252C540.184 7.8252 538.156 8.30957 536.501 9.27832C534.866 10.2471 533.867 11.5993 533.504 13.335C533.161 14.9294 533.615 16.1201 534.866 16.9072C535.653 17.432 537.46 18.0475 540.285 18.7539Z" fill="white"/>
<path d="M118.879 91.0068C119.969 93.2269 120.514 95.6286 120.514 98.2119C120.534 100.795 120.302 103.257 119.817 105.599C118.546 111.532 116.285 116.558 113.036 120.675C108.636 126.225 103.066 129 96.3252 129H77.1016L86.5771 84.377H105.801C108.546 84.4173 110.776 84.7402 112.491 85.3457C115.397 86.375 117.527 88.262 118.879 91.0068ZM110.19 106.234C111.159 101.693 111.189 98.2119 110.281 95.79C109.373 93.348 106.8 92.127 102.562 92.127H93.9639L87.7881 121.25H96.3857C100.785 121.25 104.317 119.08 106.981 114.741C108.435 112.36 109.504 109.524 110.19 106.234Z" fill="white"/>
<path d="M154.692 84.377L161.02 129H150.908L149.97 119.827H133.531L128.506 129H118.758L144.157 84.377H154.692ZM147.154 94.5791L137.679 112.138H149.001L147.154 94.5791Z" fill="white"/>
<path d="M187.63 101.754L194.926 103.601C198.115 104.408 200.425 105.488 201.858 106.84C204.078 108.939 204.765 111.976 203.917 115.952C203.049 120.029 200.769 123.42 197.075 126.124C193.382 128.808 188.689 130.15 182.998 130.15C177.186 130.15 172.897 128.828 170.132 126.185C167.367 123.521 166.479 119.868 167.468 115.226H176.368C176.227 117.264 176.459 118.788 177.064 119.797C178.195 121.633 180.596 122.552 184.27 122.552C186.469 122.552 188.306 122.31 189.779 121.825C192.585 120.897 194.25 119.171 194.774 116.648C195.097 115.175 194.694 114.035 193.563 113.228C192.453 112.44 190.576 111.744 187.933 111.139L183.422 110.079C179.002 109.03 176.035 107.889 174.521 106.658C171.958 104.6 171.141 101.381 172.069 97.001C172.917 93.0049 175.076 89.6849 178.548 87.041C182.019 84.3971 186.57 83.0752 192.201 83.0752C196.904 83.0752 200.647 84.3265 203.433 86.8291C206.218 89.3115 207.187 92.9242 206.339 97.667H197.378C197.802 94.9827 197.045 93.0755 195.107 91.9453C193.816 91.1986 192.09 90.8252 189.931 90.8252C187.529 90.8252 185.501 91.3096 183.846 92.2783C182.211 93.2471 181.212 94.5993 180.849 96.335C180.506 97.9294 180.96 99.1201 182.211 99.9072C182.998 100.432 184.804 101.048 187.63 101.754Z" fill="white"/>
<path d="M221.445 109.08L217.237 129H208.004L217.479 84.377H226.713L223.08 101.391H240.518L244.15 84.377H253.414L243.938 129H234.675L238.883 109.08H221.445Z" fill="white"/>
<path d="M279.722 128.395C277.683 128.798 275.524 129 273.243 129H253.021L262.496 84.377H284.172C289.621 84.4577 293.153 86.042 294.768 89.1299C295.736 91.027 295.948 93.2975 295.403 95.9414C294.818 98.666 293.658 100.856 291.922 102.511C290.973 103.439 289.672 104.287 288.017 105.054C290.116 105.881 291.549 107.193 292.315 108.989C293.103 110.785 293.224 112.965 292.679 115.528C292.114 118.172 290.943 120.544 289.167 122.643C288.017 124.035 286.705 125.206 285.231 126.154C283.576 127.244 281.74 127.991 279.722 128.395ZM277.179 109.353H266.068L263.556 121.25H274.515C276.472 121.25 278.047 120.988 279.237 120.463C281.437 119.494 282.83 117.637 283.415 114.893C283.899 112.572 283.274 110.977 281.538 110.109C280.569 109.625 279.116 109.373 277.179 109.353ZM283.627 100.846C284.999 100.119 285.887 98.8174 286.291 96.9404C286.715 94.8617 286.2 93.4893 284.747 92.8232C283.435 92.359 281.7 92.127 279.54 92.127H269.731L267.643 101.966H278.602C280.559 101.966 282.234 101.592 283.627 100.846Z" fill="white"/>
<path d="M340.692 88.2217C344.325 92.3187 345.274 98.4541 343.538 106.628C341.823 114.64 338.26 120.776 332.852 125.034C328.755 128.506 323.517 130.241 317.14 130.241C310.762 130.241 306.251 128.506 303.607 125.034C299.995 120.776 299.046 114.64 300.762 106.628C302.497 98.4541 306.06 92.3187 311.448 88.2217C315.545 84.7503 320.783 83.0146 327.16 83.0146C333.538 83.0146 338.049 84.7503 340.692 88.2217ZM325.495 90.916C321.802 90.916 318.562 92.2783 315.777 95.0029C313.012 97.7275 311.095 101.603 310.025 106.628C308.956 111.653 309.228 115.528 310.843 118.253C312.457 120.978 315.111 122.34 318.805 122.34C322.498 122.34 325.717 120.978 328.462 118.253C331.227 115.528 333.144 111.653 334.214 106.628C335.263 101.623 334.991 97.7578 333.396 95.0332C331.822 92.2884 329.188 90.916 325.495 90.916Z" fill="white"/>
<path d="M378.716 84.377L385.043 129H374.932L373.993 119.827H357.555L352.529 129H342.781L368.181 84.377H378.716ZM371.178 94.5791L361.702 112.138H373.024L371.178 94.5791Z" fill="white"/>
<path d="M417.799 126.608C417.819 125.357 417.96 124.076 418.223 122.764L419.04 118.616C419.605 115.771 419.484 113.873 418.677 112.925C417.89 111.976 416.124 111.502 413.379 111.502H403.752L400.059 129H390.946L400.422 84.377H422.31C425.418 84.4375 427.739 84.821 429.272 85.5273C430.806 86.2337 432.017 87.2731 432.905 88.6455C433.632 89.7757 434.126 91.027 434.389 92.3994C434.671 93.7718 434.631 95.3359 434.268 97.0918C433.803 99.2109 432.814 101.3 431.301 103.358C429.807 105.397 427.739 106.84 425.095 107.688C426.972 108.515 428.173 109.696 428.697 111.229C429.242 112.743 429.182 115.064 428.516 118.192L427.88 121.189C427.456 123.228 427.244 124.61 427.244 125.337C427.244 126.487 427.628 127.335 428.395 127.88L428.183 129H417.92C417.839 128.011 417.799 127.214 417.799 126.608ZM418.707 92.127H407.869L405.326 104.115H415.892C417.991 104.115 419.615 103.873 420.766 103.389C422.804 102.541 424.096 100.866 424.641 98.3633C425.206 95.6589 424.691 93.8424 423.097 92.9141C422.188 92.3893 420.725 92.127 418.707 92.127Z" fill="white"/>
<path d="M477.316 91.0068C478.406 93.2269 478.951 95.6286 478.951 98.2119C478.971 100.795 478.739 103.257 478.255 105.599C476.983 111.532 474.723 116.558 471.474 120.675C467.074 126.225 461.504 129 454.763 129H435.539L445.015 84.377H464.238C466.983 84.4173 469.213 84.7402 470.929 85.3457C473.835 86.375 475.964 88.262 477.316 91.0068ZM468.628 106.234C469.597 101.693 469.627 98.2119 468.719 95.79C467.811 93.348 465.237 92.127 460.999 92.127H452.401L446.226 121.25H454.823C459.223 121.25 462.755 119.08 465.419 114.741C466.872 112.36 467.942 109.524 468.628 106.234Z" fill="white"/>
</svg>
