<svg width="100%" height="100%" viewBox="0 0 192 53" fill="none" xmlns="http://www.w3.org/2000/svg">
<path d="M27.1087 15H23.6687V4.66H19.9287V1.66H30.8287V4.66H27.1087V15ZM42.446 15H38.506L36.266 10.48H34.506V15H31.066V1.66H37.746C40.706 1.66 42.386 3.62 42.386 6.1C42.386 8.42 40.966 9.66 39.726 10.1L42.446 15ZM38.886 6.06C38.886 5.14 38.126 4.56 37.226 4.56H34.506V7.56H37.226C38.126 7.56 38.886 6.98 38.886 6.06ZM55.8487 15H52.1087L51.4287 12.98H45.8887L45.2087 15H41.4687L46.4887 1.66H50.8087L55.8487 15ZM50.5287 10.08L48.6487 4.66L46.7887 10.08H50.5287ZM67.834 15H64.514L58.874 6.94V15H55.434V1.66H58.974L64.374 9.34V1.66H67.834V15ZM67.8787 13.12L69.6987 10.54C70.6587 11.5 72.1387 12.3 73.9587 12.3C75.1387 12.3 75.8587 11.8 75.8587 11.16C75.8587 10.4 74.9987 10.1 73.5787 9.8C71.3787 9.36 68.2987 8.8 68.2987 5.64C68.2987 3.4 70.1987 1.46 73.6187 1.46C75.7587 1.46 77.6187 2.1 79.0387 3.32L77.1587 5.78C76.0387 4.86 74.5787 4.4 73.3987 4.4C72.2587 4.4 71.8187 4.86 71.8187 5.44C71.8187 6.14 72.6387 6.38 74.1187 6.66C76.3187 7.12 79.3587 7.76 79.3587 10.78C79.3587 13.46 77.3787 15.24 73.7987 15.24C71.0987 15.24 69.2187 14.4 67.8787 13.12ZM83.0076 15H79.5676V1.66H83.0076V15ZM90.4274 15H86.9874V4.66H83.2474V1.66H94.1474V4.66H90.4274V15ZM27.4043 25.9395C28.0371 27.2285 28.3535 28.623 28.3535 30.123C28.3652 31.623 28.2305 33.0527 27.9492 34.4121C27.2109 37.8574 25.8984 40.7754 24.0117 43.166C21.457 46.3887 18.2227 48 14.3086 48H3.14648L8.64844 22.0898H19.8105C21.4043 22.1133 22.6992 22.3008 23.6953 22.6523C25.3828 23.25 26.6191 24.3457 27.4043 25.9395ZM22.3594 34.7812C22.9219 32.1445 22.9395 30.123 22.4121 28.7168C21.8848 27.2988 20.3906 26.5898 17.9297 26.5898H12.9375L9.35156 43.5H14.3438C16.8984 43.5 18.9492 42.2402 20.4961 39.7207C21.3398 38.3379 21.9609 36.6914 22.3594 34.7812ZM38.7422 36.3457C39.7031 36.2285 40.4004 36.082 40.834 35.9062C41.6074 35.6016 42.0645 35.127 42.2051 34.4824C42.3691 33.6973 42.2109 33.1582 41.7305 32.8652C41.25 32.5605 40.4824 32.4082 39.4277 32.4082C38.2441 32.4082 37.3418 32.7012 36.7207 33.2871C36.2871 33.7207 35.9297 34.3066 35.6484 35.0449H30.8145C31.2832 33.3691 32.0449 31.9922 33.0996 30.9141C34.7871 29.2266 37.2422 28.3828 40.4648 28.3828C42.5625 28.3828 44.3379 28.7988 45.791 29.6309C47.2441 30.4629 47.7246 32.0332 47.2324 34.3418L45.3516 43.1309C45.2227 43.7402 45.082 44.4785 44.9297 45.3457C44.8242 46.002 44.8242 46.4473 44.9297 46.6816C45.0469 46.916 45.252 47.1094 45.5449 47.2617L45.4043 48H39.9551C39.8848 47.6133 39.8555 47.25 39.8672 46.9102C39.8789 46.5703 39.9141 46.1836 39.9727 45.75C39.1172 46.5 38.1855 47.1387 37.1777 47.666C35.959 48.2871 34.6699 48.5977 33.3105 48.5977C31.5762 48.5977 30.2461 48.1055 29.3203 47.1211C28.4062 46.125 28.1426 44.7188 28.5293 42.9023C29.0332 40.5469 30.3047 38.8418 32.3438 37.7871C33.457 37.2129 35.0098 36.8027 37.002 36.5566L38.7422 36.3457ZM38.8301 39.5098L37.6699 39.7207C36.5684 39.9082 35.7598 40.1367 35.2441 40.4062C34.377 40.8633 33.8438 41.5723 33.6445 42.5332C33.457 43.3887 33.5566 44.0098 33.9434 44.3965C34.3418 44.7715 34.8809 44.959 35.5605 44.959C36.6387 44.959 37.6992 44.6426 38.7422 44.0098C39.7852 43.377 40.5059 42.2227 40.9043 40.5469L41.291 38.6836C40.9395 38.8828 40.5879 39.0469 40.2363 39.1758C39.8848 39.293 39.416 39.4043 38.8301 39.5098ZM56.1973 33.832C56.0684 34.4062 56.2266 34.8223 56.6719 35.0801C57.1055 35.3496 58.7461 35.8125 61.5938 36.4688C63.4805 36.9375 64.8223 37.6465 65.6191 38.5957C66.4043 39.5566 66.6445 40.7578 66.3398 42.1992C65.9297 44.0977 64.8926 45.6504 63.2285 46.8574C61.5645 48.0527 59.2559 48.6504 56.3027 48.6504C53.291 48.6504 51.1992 48.0176 50.0273 46.752C48.8672 45.4746 48.4922 43.8516 48.9023 41.8828H53.9824C53.9004 42.7734 54 43.4062 54.2812 43.7812C54.75 44.4492 55.8223 44.7832 57.498 44.7832C58.4824 44.7832 59.2969 44.6367 59.9414 44.3438C60.5859 44.0508 60.9727 43.6113 61.1016 43.0254C61.2188 42.4629 61.0723 42.0352 60.6621 41.7422C60.252 41.4492 58.6172 40.9453 55.7578 40.2305C53.707 39.6914 52.3242 39.0176 51.6094 38.209C50.8828 37.4121 50.6836 36.2637 51.0117 34.7637C51.3867 32.9941 52.4004 31.4766 54.0527 30.2109C55.7168 28.9336 57.8086 28.2949 60.3281 28.2949C62.7188 28.2949 64.5645 28.7754 65.8652 29.7363C67.166 30.6855 67.6816 32.332 67.4121 34.6758H62.4023C62.4609 34.0312 62.3848 33.5215 62.1738 33.1465C61.7637 32.4668 60.8965 32.127 59.5723 32.127C58.4824 32.127 57.668 32.2969 57.1289 32.6367C56.6016 32.9766 56.291 33.375 56.1973 33.832ZM81.1934 32.5137C79.8691 32.5137 78.7676 32.959 77.8887 33.8496C77.0215 34.7285 76.4121 35.9883 76.0605 37.6289L73.8633 48H68.8711L74.3555 22.1777H79.3477L77.3965 31.3359C78.3574 30.2227 79.3594 29.4492 80.4023 29.0156C81.457 28.5703 82.5117 28.3477 83.5664 28.3477C84.75 28.3477 85.7812 28.5527 86.6602 28.9629C87.5391 29.373 88.2012 30 88.6465 30.8438C89.0215 31.5586 89.1855 32.2969 89.1387 33.0586C89.1035 33.8086 88.9043 35.0391 88.541 36.75L86.1504 48H81.0352L83.4961 36.3457C83.7188 35.3145 83.7246 34.4824 83.5137 33.8496C83.2441 32.959 82.4707 32.5137 81.1934 32.5137ZM101.725 29.2969C102.744 28.7109 103.951 28.418 105.346 28.418C107.865 28.418 109.641 29.3262 110.672 31.1426C111.715 32.959 111.932 35.3027 111.322 38.1738C110.689 41.1504 109.459 43.6172 107.631 45.5742C105.814 47.5312 103.646 48.5098 101.127 48.5098C99.5449 48.5098 98.3438 48.1934 97.5234 47.5605C97.0312 47.1855 96.5508 46.5293 96.082 45.5918L95.5723 48H90.668L96.1523 22.125H101.145L99.1934 31.3359C100.014 30.4453 100.857 29.7656 101.725 29.2969ZM104.01 42.8145C104.947 41.7715 105.598 40.4004 105.961 38.7012C106.254 37.3418 106.318 36.2168 106.154 35.3262C105.838 33.6387 104.783 32.7949 102.99 32.7949C101.174 32.7949 99.75 33.6211 98.7188 35.2734C98.1797 36.1523 97.7637 37.2891 97.4707 38.6836C97.1191 40.3242 97.1895 41.6836 97.6816 42.7617C98.1855 43.8398 99.1816 44.3789 100.67 44.3789C101.959 44.3789 103.072 43.8574 104.01 42.8145ZM132.381 31.2656C133.564 33.293 133.863 35.6895 133.277 38.4551C132.68 41.2676 131.355 43.6758 129.305 45.6797C127.266 47.6719 124.6 48.668 121.307 48.668C118.014 48.668 115.77 47.6719 114.574 45.6797C113.391 43.6758 113.098 41.2676 113.695 38.4551C114.281 35.6895 115.6 33.293 117.65 31.2656C119.701 29.2383 122.373 28.2246 125.666 28.2246C128.959 28.2246 131.197 29.2383 132.381 31.2656ZM124.734 32.4609C123.27 32.4609 122.033 32.9824 121.025 34.0254C120.018 35.0566 119.309 36.5332 118.898 38.4551C118.488 40.377 118.564 41.8594 119.127 42.9023C119.701 43.9453 120.721 44.4668 122.186 44.4668C123.65 44.4668 124.887 43.9453 125.895 42.9023C126.902 41.8594 127.611 40.377 128.021 38.4551C128.432 36.5332 128.35 35.0566 127.775 34.0254C127.213 32.9824 126.199 32.4609 124.734 32.4609ZM144.844 36.3457C145.805 36.2285 146.502 36.082 146.936 35.9062C147.709 35.6016 148.166 35.127 148.307 34.4824C148.471 33.6973 148.312 33.1582 147.832 32.8652C147.352 32.5605 146.584 32.4082 145.529 32.4082C144.346 32.4082 143.443 32.7012 142.822 33.2871C142.389 33.7207 142.031 34.3066 141.75 35.0449H136.916C137.385 33.3691 138.146 31.9922 139.201 30.9141C140.889 29.2266 143.344 28.3828 146.566 28.3828C148.664 28.3828 150.439 28.7988 151.893 29.6309C153.346 30.4629 153.826 32.0332 153.334 34.3418L151.453 43.1309C151.324 43.7402 151.184 44.4785 151.031 45.3457C150.926 46.002 150.926 46.4473 151.031 46.6816C151.148 46.916 151.354 47.1094 151.646 47.2617L151.506 48H146.057C145.986 47.6133 145.957 47.25 145.969 46.9102C145.98 46.5703 146.016 46.1836 146.074 45.75C145.219 46.5 144.287 47.1387 143.279 47.666C142.061 48.2871 140.771 48.5977 139.412 48.5977C137.678 48.5977 136.348 48.1055 135.422 47.1211C134.508 46.125 134.244 44.7188 134.631 42.9023C135.135 40.5469 136.406 38.8418 138.445 37.7871C139.559 37.2129 141.111 36.8027 143.104 36.5566L144.844 36.3457ZM144.932 39.5098L143.771 39.7207C142.67 39.9082 141.861 40.1367 141.346 40.4062C140.479 40.8633 139.945 41.5723 139.746 42.5332C139.559 43.3887 139.658 44.0098 140.045 44.3965C140.443 44.7715 140.982 44.959 141.662 44.959C142.74 44.959 143.801 44.6426 144.844 44.0098C145.887 43.377 146.607 42.2227 147.006 40.5469L147.393 38.6836C147.041 38.8828 146.689 39.0469 146.338 39.1758C145.986 39.293 145.518 39.4043 144.932 39.5098ZM169.717 28.3828C169.775 28.3945 169.91 28.4062 170.121 28.418L169.031 33.5508C168.727 33.5156 168.451 33.4922 168.205 33.4805C167.959 33.4688 167.76 33.4629 167.607 33.4629C165.592 33.4629 164.098 34.1191 163.125 35.4316C162.586 36.1699 162.152 37.3066 161.824 38.8418L159.891 48H154.846L158.906 28.8398H163.688L162.984 32.1797C164.027 30.9023 164.883 30.0293 165.551 29.5605C166.664 28.7754 167.971 28.3828 169.471 28.3828C169.564 28.3828 169.646 28.3828 169.717 28.3828ZM183.094 29.1387C183.879 29.6543 184.459 30.3633 184.834 31.2656L186.768 22.125H191.848L186.363 48H181.494L182.057 45.3457C181.096 46.4824 180.1 47.3086 179.068 47.8242C178.049 48.3398 176.859 48.5977 175.5 48.5977C173.262 48.5977 171.568 47.6953 170.42 45.8906C169.283 44.0742 169.014 41.748 169.611 38.9121C170.314 35.6426 171.615 33.0703 173.514 31.1953C175.424 29.3203 177.639 28.3828 180.158 28.3828C181.318 28.3828 182.297 28.6348 183.094 29.1387ZM180.352 32.7598C178.887 32.7598 177.691 33.3164 176.766 34.4297C175.852 35.5312 175.219 36.9023 174.867 38.543C174.492 40.3125 174.539 41.7305 175.008 42.7969C175.477 43.8516 176.42 44.3789 177.838 44.3789C179.256 44.3789 180.445 43.8516 181.406 42.7969C182.379 41.7422 183.041 40.377 183.393 38.7012C183.885 36.3574 183.65 34.6816 182.689 33.6738C182.092 33.0645 181.312 32.7598 180.352 32.7598Z" fill="white"/>
<path d="M107.325 15H106.165V3.16L101.305 15H100.865L95.9848 3.16V15H94.8448V1.66H96.5448L101.085 12.72L105.605 1.66H107.325V15ZM120.226 15H118.946L117.606 11.72H110.506L109.166 15H107.886L113.346 1.66H114.766L120.226 15ZM117.246 10.68L114.046 2.78L110.866 10.68H117.246ZM123.968 15H122.808V2.7H118.448V1.66H128.328V2.7H123.968V15ZM133.857 15H132.697V2.7H128.337V1.66H138.217V2.7H133.857V15ZM147.646 15H139.186V1.66H147.646V2.7H140.326V7.64H147.506V8.68H140.326V13.96H147.646V15ZM158.275 15H156.895L153.155 9.48H150.215V15H149.075V1.66H154.055C156.355 1.66 158.115 3.12 158.115 5.56C158.115 7.98 156.395 9.32 154.415 9.4L158.275 15ZM156.915 5.56C156.915 3.88 155.715 2.7 153.955 2.7H150.215V8.44H153.955C155.715 8.44 156.915 7.24 156.915 5.56ZM158.81 13.12L159.55 12.26C160.41 13.26 161.81 14.2 163.71 14.2C166.45 14.2 167.23 12.68 167.23 11.54C167.23 9.66 165.45 9.14 163.57 8.64C161.47 8.06 159.23 7.46 159.23 5C159.23 2.82 161.19 1.44 163.61 1.44C165.61 1.44 167.09 2.14 168.13 3.32L167.37 4.16C166.41 3 165.05 2.48 163.55 2.48C161.77 2.48 160.43 3.5 160.43 4.94C160.43 6.52 162.09 6.98 163.91 7.46C166.07 8.08 168.43 8.76 168.43 11.46C168.43 13.18 167.29 15.24 163.69 15.24C161.49 15.24 159.83 14.36 158.81 13.12Z" fill="#D31A2B"/>
</svg>
