<svg width="289" height="44" viewBox="0 0 289 44" fill="none" xmlns="http://www.w3.org/2000/svg">
<path d="M21.9999 38.4871C31.1055 38.4871 38.4871 31.1055 38.4871 21.9999C38.4871 12.8943 31.1055 5.5127 21.9999 5.5127C12.8943 5.5127 5.5127 12.8943 5.5127 21.9999C5.5127 31.1055 12.8943 38.4871 21.9999 38.4871Z" fill="white"/>
<path d="M10.5129 13.8459H33.5386V19.3331H25.2052V33.4101H18.8463V19.3331H10.5129V13.8459Z" fill="#2E2D2C"/>
<path d="M0 22C0 9.84615 9.84615 0 22 0C34.1538 0 44 9.84615 44 22C44 34.1538 34.1538 44 22 44C9.84615 44 0 34.1282 0 22ZM22 38.4872C31.1026 38.4872 38.4872 31.1026 38.4872 22C38.4872 12.8974 31.1026 5.51282 22 5.51282C12.8974 5.51282 5.51282 12.8974 5.51282 22.0256C5.51282 31.1538 12.8718 38.4872 22 38.4872Z" fill="#D31A2B"/>
<path fill-rule="evenodd" clip-rule="evenodd" d="M168 9.18279V13.3052L161.414 13.4701V31.7736H157.076L156.916 13.3052L150.49 13.4701V31.7736L145.992 31.6087L145.831 26.1671C145.317 34.1481 131.39 33.1752 128 28.4756L128.482 27.981L130.57 24.8479C133.028 26.8267 138.024 29.6299 141.173 26.1671C141.189 24.7325 140.916 24.6006 140.369 23.8585C135.775 22.5888 126.924 21.5005 128.803 14.2946C130.843 6.51147 140.659 8.96842 145.51 11.986L142.94 15.6137C140.498 14.1791 138.024 12.6951 134.426 13.635L133.622 14.7893V15.7786C134.699 17.8893 138.378 17.7574 140.691 18.5819C143.695 19.6702 144.578 20.9564 145.992 23.6936L146.153 9.18279H168V9.18279Z" fill="white"/>
<path fill-rule="evenodd" clip-rule="evenodd" d="M279.017 9.10737C283.473 8.95865 286.482 9.73531 288.287 12.247L287.149 13.569L286.173 12.5775C282.676 10.892 273.976 9.30567 275.927 16.5435C279.505 19.0717 287.669 19.5179 288.775 24.4753C290.987 34.357 276.253 33.2829 273 28.7717V28.4412L274.138 27.2845C275.521 28.3751 276.757 29.6971 278.692 30.2589C282.579 31.366 287.718 29.5318 286.823 25.3015C285.506 19.0717 273.651 22.955 273.651 15.0562C273.651 13.189 274.203 12.0157 275.114 11.0903C276.155 10.0327 277.602 9.83445 279.017 9.10737Z" fill="white"/>
<path fill-rule="evenodd" clip-rule="evenodd" d="M190 9.08984L189.85 32.0898L188.354 31.922L188.205 12.1117L180.874 32.0898L180.126 31.922L172.945 12.1117V32.0898L171 31.922L171.15 9.08984H173.693L180.425 27.8928L180.724 27.7249C181.143 25.3074 186.454 10.3825 187.606 9.08984H190Z" fill="white"/>
<path fill-rule="evenodd" clip-rule="evenodd" d="M208 9.08984H222V10.7687H215.919L215.778 32.0898H214.081V10.7687H208V9.08984Z" fill="white"/>
<path fill-rule="evenodd" clip-rule="evenodd" d="M225 9.08984H240V10.7687H233.317L233.168 32.0898H231.832L231.683 10.7687H225V9.08984Z" fill="white"/>
<path fill-rule="evenodd" clip-rule="evenodd" d="M241 9.08984H256V10.7687H242.919V19.3307H255.651V21.3453H242.919V30.2431H256V32.0898L241 31.922V9.08984Z" fill="white"/>
<path fill-rule="evenodd" clip-rule="evenodd" d="M266.936 22.5962C268.372 21.9966 269.681 21.9633 270.766 21.0972C274.069 18.4656 272.872 11.9533 269.809 10.1046C267.351 8.62224 261.702 9.17188 258 9.27181V32.0898H259.915C259.963 28.9753 260.027 25.8773 260.074 22.7628H264.702C266.729 25.8773 268.739 28.9753 270.766 32.0898H273V31.9233C270.973 28.8087 268.947 25.6941 266.936 22.5962ZM260.074 21.0972V10.9374C265.213 10.7708 269.793 10.5543 270.766 14.7681C272.314 21.4636 265.404 21.2804 260.074 21.0972Z" fill="white"/>
<path fill-rule="evenodd" clip-rule="evenodd" d="M201.792 9.25773L199.36 9.08984L191 31.922V32.0898H192.824L194.952 26.5497H206.048L207.872 31.922L208.176 32.0898H210L201.792 9.25773ZM195.712 24.8709L200.424 11.6081C202.05 16.0234 203.662 20.4555 205.288 24.8709H195.712Z" fill="white"/>
<path fill-rule="evenodd" clip-rule="evenodd" d="M123.567 9.43946V23.3209L113.75 9.76608C113.037 9.08018 110.14 9.37414 108.842 9.43946V30.9965L100.608 9.43946H94.9083L86.8333 31.3232L86.5167 31.4865L81.925 23.1576C87.6725 22.1451 87.5458 13.065 83.35 10.4193C79.9142 8.26362 58.3017 9.3578 52 9.43946V13.5222H58.3333C58.3808 19.6138 58.4442 25.7216 58.4917 31.8131H62.7667V13.6856L69.1 13.5222C69.1475 19.6138 69.2108 25.7216 69.2583 31.8131H73.5333C73.5808 29.2001 73.6442 26.5871 73.6917 23.9742H77.0167L81.1333 31.4865C83.445 32.5807 88.6225 31.8621 91.5833 31.8131C92.1058 30.5556 92.6442 29.3144 93.1667 28.0569L102.508 28.2203C102.872 29.3634 103.252 30.5066 103.617 31.6498L113.592 31.8131V17.4417L123.725 31.8131H127.842C127.889 24.3498 127.953 16.9028 128 9.43946H123.567V9.43946ZM81.2917 18.5849C79.5658 19.8261 76.8267 19.8097 73.6917 19.7281V13.5222C77.175 13.4569 79.5975 13.5386 81.45 14.992C81.7983 16.3149 81.6717 17.3764 81.2917 18.5849ZM94.4333 23.8109C95.4942 20.7569 96.5392 17.7193 97.6 14.6654C99.3575 16.0699 100.292 21.5408 101.083 23.8109H94.4333Z" fill="white"/>
</svg>
