<svg xmlns="http://www.w3.org/2000/svg" viewBox="0 0 529.88 529.88"><defs><style>.cls-1{fill:#fff;}.cls-2{fill:#2e2d2c;}.cls-3{fill:#d31a2b;}</style></defs><g id="Layer_2" data-name="Layer 2"><g id="Misc_Logos" data-name="Misc Logos"><g id="T_Shirt_Design" data-name="T Shirt Design"><g id="Layer_1-2" data-name="Layer 1"><circle class="cls-1" cx="264.94" cy="264.94" r="198.7"/><polygon class="cls-2" points="126.65 166.62 404 166.62 404 232.85 303.62 232.85 303.62 402.58 227.03 402.58 227.03 232.85 126.65 232.85 126.65 166.62"/><path class="cls-3" d="M0,264.94C0,118.62,118.61,0,264.94,0S529.88,118.62,529.88,264.94,411.26,529.88,264.94,529.88,0,411.25,0,264.94Zm264.93,198.7c109.74,0,198.7-89,198.7-198.7s-89-198.71-198.7-198.71-198.7,89-198.7,198.71S155.19,463.64,264.93,463.64Z"/></g></g></g></g></svg>