<?xml version="1.0" encoding="utf-8"?>
<!-- Generator: Adobe Illustrator 23.0.3, SVG Export Plug-In . SVG Version: 6.00 Build 0)  -->
<svg version="1.1" id="Layer_1" xmlns="http://www.w3.org/2000/svg" xmlns:xlink="http://www.w3.org/1999/xlink" x="0px" y="0px"
	 viewBox="0 0 1695.6 171.6" style="enable-background:new 0 0 1695.6 171.6;" xml:space="preserve">
<style type="text/css">
	.st0{fill-rule:evenodd;clip-rule:evenodd;fill:#FFFFFF;}
	.st1{fill:#FFFFFF;}
	.st2{fill:#2E2D2C;}
	.st3{fill:#D31A2B;}
</style>
<path class="st0" d="M925.2,16.6v25l-41,1v111h-27l-1-112l-40,1v111l-28-1l-1-33c-3.2,48.4-89.9,42.5-111,14l3-3l13-19
	c15.3,12,46.4,29,66,8c0.1-8.7-1.6-9.5-5-14c-28.6-7.7-83.7-14.3-72-58c12.7-47.2,73.8-32.3,104-14l-16,22
	c-15.2-8.7-30.6-17.7-53-12l-5,7v6c6.7,12.8,29.6,12,44,17c18.7,6.6,24.2,14.4,33,31l1-88H925.2z"/>
<path class="st0" d="M1634.2,15.6c27.4-0.9,45.9,3.8,57,19l-7,8l-6-6c-21.5-10.2-75-19.8-63,24c22,15.3,72.2,18,79,48
	c13.6,59.8-77,53.3-97,26v-2l7-7c8.5,6.6,16.1,14.6,28,18c23.9,6.7,55.5-4.4,50-30c-8.1-37.7-81-14.2-81-62c0-11.3,3.4-18.4,9-24
	C1616.6,21.2,1625.5,20,1634.2,15.6z"/>
<path class="st0" d="M1064.2,16.6l-1,137l-10-1l-1-118l-49,119l-5-1l-48-118v119l-13-1l1-136h17l45,112l2-1
	c2.8-14.4,38.3-103.3,46-111H1064.2z"/>
<path class="st0" d="M1177.2,16.6h99v10h-43l-1,127h-12v-127h-43V16.6z"/>
<path class="st0" d="M1288.2,16.6h101v10h-45l-1,127h-9l-1-127h-45V16.6z"/>
<path class="st0" d="M1399.2,16.6h86v10h-75v51h73v12h-73v53h75v11l-86-1V16.6z"/>
<path class="st0" d="M1554.2,96.6c9-3.6,17.2-3.8,24-9c20.7-15.8,13.2-54.9-6-66c-15.4-8.9-50.8-5.6-74-5v137h12
	c0.3-18.7,0.7-37.3,1-56h29c12.7,18.7,25.3,37.3,38,56h14v-1C1579.5,133.9,1566.8,115.2,1554.2,96.6z M1511.2,87.6v-61
	c32.2-1,60.9-2.3,67,23C1587.9,89.8,1544.6,88.7,1511.2,87.6z"/>
<path class="st0" d="M1143.2,17.6l-16-1l-55,136v1h12l14-33h73l12,32l2,1h12L1143.2,17.6z M1103.2,110.6l31-79
	c10.7,26.3,21.3,52.7,32,79H1103.2z"/>
<path class="st0" d="M647.2,16.6v85l-62-83c-4.5-4.2-22.8-2.4-31-2v132l-52-132h-36l-51,134l-2,1l-29-51c36.3-6.2,35.5-61.8,9-78
	c-21.7-13.2-158.2-6.5-198-6v25h40c0.3,37.3,0.7,74.7,1,112h27v-111l40-1c0.3,37.3,0.7,74.7,1,112h27c0.3-16,0.7-32,1-48h21l26,46
	c14.6,6.7,47.3,2.3,66,2c3.3-7.7,6.7-15.3,10-23l59,1c2.3,7,4.7,14,7,21l63,1v-88l64,88h26c0.3-45.7,0.7-91.3,1-137H647.2z
	 M380.2,72.6c-10.9,7.6-28.2,7.5-48,7v-38c22-0.4,37.3,0.1,49,9C383.4,58.7,382.6,65.2,380.2,72.6z M463.2,104.6
	c6.7-18.7,13.3-37.3,20-56c11.1,8.6,17,42.1,22,56H463.2z"/>
<g>
	<g id="_x37_68_w_x2F__menu">
		<g>
			<g>
				<ellipse class="st1" cx="85.8" cy="85.8" rx="64.3" ry="64.3"/>
			</g>
			<polygon class="st2" points="41,54 130.8,54 130.8,75.4 98.3,75.4 98.3,130.3 73.5,130.3 73.5,75.4 41,75.4 			"/>
			<g>
				<g>
					<path class="st3" d="M0,85.8C0,38.4,38.4,0,85.8,0s85.8,38.4,85.8,85.8s-38.4,85.8-85.8,85.8S0,133.1,0,85.8z M85.8,150.1
						c35.5,0,64.3-28.8,64.3-64.3s-28.8-64.3-64.3-64.3c-35.5,0-64.3,28.8-64.3,64.4S50.2,150.1,85.8,150.1z"/>
				</g>
			</g>
		</g>
	</g>
	<g id="_x31_280">
	</g>
</g>
</svg>
