<svg width="100%" height="100%" viewBox="0 0 956 856" fill="none" xmlns="http://www.w3.org/2000/svg">
<path d="M478 171H955C954.903 84.9946 739.5 0 478 0V171Z" fill="#BFBAA7"/>
<path d="M478 564V171H955V564H478Z" fill="#F5F5F4"/>
<path d="M478 855V564L955.5 563L951 686.5C943.42 755.44 921.444 800.019 884.199 853.29C883.452 854.357 882.225 855 880.922 855H478Z" fill="#003DA5"/>
<path d="M478 777H587V189C544.823 189 520.177 189 478 189" stroke="#7C7C7C" stroke-width="4"/>
<path d="M539 492.679V226.821C539 208.5 535.988 202 521.956 202H478V517.5H521.956C535.988 517.5 539 511 539 492.679Z" fill="#201E21"/>
<path d="M586.5 777H477.91V809.5V855H868L865.5 800L586.5 777Z" fill="#4B4B4B"/>
<path d="M864.957 810.072C793.519 819.484 674.905 819.5 478.91 819.5M865.409 820.012C794.019 829.484 675.319 829.5 478.91 829.5M865.363 819.009L865.002 811.075C793.472 820.486 674.786 820.5 478.91 820.5V828.5C675.439 828.5 794.067 828.482 865.363 819.009ZM478.91 818.5C675.024 818.5 793.566 818.482 864.911 809.069L864.551 801.134C792.972 810.486 674.374 810.5 478.91 810.5V818.5ZM865.454 821.015C793.972 830.486 675.199 830.5 478.91 830.5L478.91 854H866.954L865.454 821.015Z" fill="#1B1B1B" stroke="#4B4B4B" stroke-width="2"/>
<path fill-rule="evenodd" clip-rule="evenodd" d="M875 203C895.435 203 912 219.566 912 240V371V502C912 522.435 895.435 539 875 539H702C681.565 539 665 522.435 665 502V240C665 219.566 681.565 203 702 203H875ZM872 218C884.703 218 895 228.297 895 241V499C895 511.703 884.703 522 872 522H706C693.297 522 683 511.703 683 499V241C683 228.297 693.297 218 706 218H872Z" fill="#797979"/>
<path fill-rule="evenodd" clip-rule="evenodd" d="M875 203C895.435 203 912 219.566 912 240V371V502C912 522.435 895.435 539 875 539H702C681.565 539 665 522.435 665 502V240C665 219.566 681.565 203 702 203H875ZM872 218C884.703 218 895 228.297 895 241V499C895 511.703 884.703 522 872 522H706C693.297 522 683 511.703 683 499V241C683 228.297 693.297 218 706 218H872Z" fill="url(#paint0_linear_1042_21954)" fill-opacity="0.45"/>
<path d="M895 241C895 228.297 884.703 218 872 218H706C693.297 218 683 228.297 683 241V499C683 511.703 693.297 522 706 522H872C884.703 522 895 511.703 895 499V241Z" fill="black"/>
<path fill-rule="evenodd" clip-rule="evenodd" d="M869.013 855.5C866.803 855.5 865.013 853.709 865.013 851.5V800.66C865.013 798.807 863.741 797.197 861.939 796.768L854.851 795.081C854.626 795.027 854.396 794.993 854.166 794.979L666.417 783.645C664.938 783.556 663.629 782.657 663.016 781.308L661.891 778.834C661.642 778.285 661.52 777.687 661.534 777.085L666.971 544.283C666.997 543.148 667.505 542.078 668.367 541.34L669.301 540.538C670.079 539.872 671.083 539.529 672.106 539.581L864.891 549.293C867.146 549.406 869.048 547.632 869.091 545.374L869.988 498.291C870.004 497.452 870.284 496.639 870.787 495.967L872.771 493.322C872.932 493.108 873.113 492.91 873.314 492.733L877.513 489L879.505 487.672C880.162 487.234 880.934 487 881.724 487H883.742C884.251 487 884.755 487.097 885.228 487.286L889.126 488.845C889.383 488.948 889.629 489.077 889.859 489.231L894.314 492.201C895.089 492.717 895.659 493.488 895.927 494.38L896.831 497.396C896.951 497.796 897.008 498.213 896.999 498.631L889.537 845.801C889.521 846.537 889.302 847.255 888.905 847.875L885.193 853.66C884.457 854.807 883.189 855.5 881.826 855.5H869.013ZM868 582.5L865.5 578L861.5 574.5L856 572.5L693 565L690 568.5L686 748.5L691.5 756.5L852 766L856.5 765L863.5 759L866 753L868 582.5Z" fill="url(#paint1_linear_1042_21954)"/>
<path fill-rule="evenodd" clip-rule="evenodd" d="M869.013 855.5C866.803 855.5 865.013 853.709 865.013 851.5V800.66C865.013 798.807 863.741 797.197 861.939 796.768L854.851 795.081C854.626 795.027 854.396 794.993 854.166 794.979L666.417 783.645C664.938 783.556 663.629 782.657 663.016 781.308L661.891 778.834C661.642 778.285 661.52 777.687 661.534 777.085L666.971 544.283C666.997 543.148 667.505 542.078 668.367 541.34L669.301 540.538C670.079 539.872 671.083 539.529 672.106 539.581L864.891 549.293C867.146 549.406 869.048 547.632 869.091 545.374L869.988 498.291C870.004 497.452 870.284 496.639 870.787 495.967L872.771 493.322C872.932 493.108 873.113 492.91 873.314 492.733L877.513 489L879.505 487.672C880.162 487.234 880.934 487 881.724 487H883.742C884.251 487 884.755 487.097 885.228 487.286L889.126 488.845C889.383 488.948 889.629 489.077 889.859 489.231L894.314 492.201C895.089 492.717 895.659 493.488 895.927 494.38L896.831 497.396C896.951 497.796 897.008 498.213 896.999 498.631L889.537 845.801C889.521 846.537 889.302 847.255 888.905 847.875L885.193 853.66C884.457 854.807 883.189 855.5 881.826 855.5H869.013ZM868 582.5L865.5 578L861.5 574.5L856 572.5L693 565L690 568.5L686 748.5L691.5 756.5L852 766L856.5 765L863.5 759L866 753L868 582.5Z" fill="url(#paint2_linear_1042_21954)" fill-opacity="0.5"/>
<path fill-rule="evenodd" clip-rule="evenodd" d="M869.013 855.5C866.803 855.5 865.013 853.709 865.013 851.5V800.66C865.013 798.807 863.741 797.197 861.939 796.768L854.851 795.081C854.626 795.027 854.396 794.993 854.166 794.979L666.417 783.645C664.938 783.556 663.629 782.657 663.016 781.308L661.891 778.834C661.642 778.285 661.52 777.687 661.534 777.085L666.971 544.283C666.997 543.148 667.505 542.078 668.367 541.34L669.301 540.538C670.079 539.872 671.083 539.529 672.106 539.581L864.891 549.293C867.146 549.406 869.048 547.632 869.091 545.374L869.988 498.291C870.004 497.452 870.284 496.639 870.787 495.967L872.771 493.322C872.932 493.108 873.113 492.91 873.314 492.733L877.513 489L879.505 487.672C880.162 487.234 880.934 487 881.724 487H883.742C884.251 487 884.755 487.097 885.228 487.286L889.126 488.845C889.383 488.948 889.629 489.077 889.859 489.231L894.314 492.201C895.089 492.717 895.659 493.488 895.927 494.38L896.831 497.396C896.951 497.796 897.008 498.213 896.999 498.631L889.537 845.801C889.521 846.537 889.302 847.255 888.905 847.875L885.193 853.66C884.457 854.807 883.189 855.5 881.826 855.5H869.013ZM868 582.5L865.5 578L861.5 574.5L856 572.5L693 565L690 568.5L686 748.5L691.5 756.5L852 766L856.5 765L863.5 759L866 753L868 582.5Z" fill="url(#paint3_radial_1042_21954)" fill-opacity="0.2"/>
<circle cx="32" cy="32" r="32" transform="matrix(-1 0 0 1 781 89)" fill="#948B6B"/>
<circle cx="23" cy="23" r="23" transform="matrix(-1 0 0 1 772 98)" fill="#A02121"/>
<circle cx="34" cy="34" r="34" transform="matrix(-1 0 0 1 847 636)" fill="url(#paint4_radial_1042_21954)"/>
<circle cx="34" cy="34" r="34" transform="matrix(-1 0 0 1 847 636)" fill="url(#paint5_radial_1042_21954)" fill-opacity="0.85"/>
<path d="M717 670.5C717 680.165 724.835 688 734.5 688C744.165 688 752 680.165 752 670.5C752 660.835 744.165 653 734.5 653C724.835 653 717 660.835 717 670.5Z" fill="#A02121"/>
<path d="M478 171H1C1.09673 84.9946 216.5 0 478 0V171Z" fill="#BFBAA7"/>
<path d="M478 564V171H1V564H478Z" fill="#F5F5F4"/>
<path d="M478 855V564L0.5 563L5 686.5C12.5799 755.44 34.5557 800.019 71.8012 853.29C72.5476 854.357 73.7752 855 75.0779 855H478Z" fill="#003DA5"/>
<path d="M478 777H369V189C411.177 189 435.823 189 478 189" stroke="#7C7C7C" stroke-width="4"/>
<path d="M417 492.679V226.821C417 208.5 420.012 202 434.044 202H478V517.5H434.044C420.012 517.5 417 511 417 492.679Z" fill="#201E21"/>
<path d="M369.5 777H478.09V809.5V855H88L90.4998 800L369.5 777Z" fill="#4B4B4B"/>
<path d="M91.0432 810.072C162.481 819.484 281.095 819.5 477.09 819.5M90.5914 820.012C161.981 829.484 280.681 829.5 477.09 829.5M90.637 819.009L90.9976 811.075C162.528 820.486 281.214 820.5 477.09 820.5V828.5C280.561 828.5 161.933 828.482 90.637 819.009ZM477.09 818.5C280.976 818.5 162.434 818.482 91.0888 809.069L91.4495 801.134C163.028 810.486 281.626 810.5 477.09 810.5V818.5ZM90.5458 821.015C162.028 830.486 280.801 830.5 477.09 830.5L477.09 854H89.0465L90.5458 821.015Z" fill="#1B1B1B" stroke="#4B4B4B" stroke-width="2"/>
<path fill-rule="evenodd" clip-rule="evenodd" d="M81 203C60.5655 203 44 219.566 44 240V371V502C44 522.435 60.5655 539 81 539H254C274.435 539 291 522.435 291 502V240C291 219.566 274.435 203 254 203H81ZM84 218C71.2975 218 61 228.297 61 241V499C61 511.703 71.2975 522 84 522H250C262.703 522 273 511.703 273 499V241C273 228.297 262.703 218 250 218H84Z" fill="#797979"/>
<path fill-rule="evenodd" clip-rule="evenodd" d="M81 203C60.5655 203 44 219.566 44 240V371V502C44 522.435 60.5655 539 81 539H254C274.435 539 291 522.435 291 502V240C291 219.566 274.435 203 254 203H81ZM84 218C71.2975 218 61 228.297 61 241V499C61 511.703 71.2975 522 84 522H250C262.703 522 273 511.703 273 499V241C273 228.297 262.703 218 250 218H84Z" fill="url(#paint6_linear_1042_21954)" fill-opacity="0.45"/>
<path d="M61 241C61 228.297 71.2975 218 84 218H250C262.703 218 273 228.297 273 241V499C273 511.703 262.703 522 250 522H84C71.2975 522 61 511.703 61 499V241Z" fill="black"/>
<path fill-rule="evenodd" clip-rule="evenodd" d="M86.9874 855.5C89.1965 855.5 90.9874 853.709 90.9874 851.5V800.66C90.9874 798.807 92.259 797.197 94.0609 796.768L101.149 795.081C101.374 795.027 101.604 794.993 101.834 794.979L289.583 783.645C291.062 783.556 292.371 782.657 292.984 781.308L294.109 778.834C294.358 778.285 294.48 777.687 294.466 777.085L289.029 544.283C289.003 543.148 288.495 542.078 287.633 541.34L286.699 540.538C285.921 539.872 284.917 539.529 283.894 539.581L91.1093 549.293C88.854 549.406 86.9518 547.632 86.9088 545.374L86.012 498.291C85.996 497.452 85.7163 496.639 85.2127 495.967L83.229 493.322C83.0683 493.108 82.8865 492.91 82.6864 492.733L78.4874 489L76.4951 487.672C75.838 487.234 75.066 487 74.2763 487H72.2577C71.7488 487 71.2446 487.097 70.7721 487.286L66.8741 488.845C66.617 488.948 66.3712 489.077 66.1408 489.231L61.6859 492.201C60.9112 492.717 60.341 493.488 60.0734 494.38L59.1687 497.396C59.0485 497.796 58.9919 498.213 59.0009 498.631L66.4632 845.801C66.479 846.537 66.6978 847.255 67.0955 847.875L70.8069 853.66C71.5425 854.807 72.8112 855.5 74.1736 855.5H86.9874ZM88 582.5L90.5 578L94.5 574.5L100 572.5L263 565L266 568.5L270 748.5L264.5 756.5L104 766L99.5 765L92.5 759L90 753L88 582.5Z" fill="url(#paint7_linear_1042_21954)"/>
<path fill-rule="evenodd" clip-rule="evenodd" d="M86.9874 855.5C89.1965 855.5 90.9874 853.709 90.9874 851.5V800.66C90.9874 798.807 92.259 797.197 94.0609 796.768L101.149 795.081C101.374 795.027 101.604 794.993 101.834 794.979L289.583 783.645C291.062 783.556 292.371 782.657 292.984 781.308L294.109 778.834C294.358 778.285 294.48 777.687 294.466 777.085L289.029 544.283C289.003 543.148 288.495 542.078 287.633 541.34L286.699 540.538C285.921 539.872 284.917 539.529 283.894 539.581L91.1093 549.293C88.854 549.406 86.9518 547.632 86.9088 545.374L86.012 498.291C85.996 497.452 85.7163 496.639 85.2127 495.967L83.229 493.322C83.0683 493.108 82.8865 492.91 82.6864 492.733L78.4874 489L76.4951 487.672C75.838 487.234 75.066 487 74.2763 487H72.2577C71.7488 487 71.2446 487.097 70.7721 487.286L66.8741 488.845C66.617 488.948 66.3712 489.077 66.1408 489.231L61.6859 492.201C60.9112 492.717 60.341 493.488 60.0734 494.38L59.1687 497.396C59.0485 497.796 58.9919 498.213 59.0009 498.631L66.4632 845.801C66.479 846.537 66.6978 847.255 67.0955 847.875L70.8069 853.66C71.5425 854.807 72.8112 855.5 74.1736 855.5H86.9874ZM88 582.5L90.5 578L94.5 574.5L100 572.5L263 565L266 568.5L270 748.5L264.5 756.5L104 766L99.5 765L92.5 759L90 753L88 582.5Z" fill="url(#paint8_linear_1042_21954)" fill-opacity="0.5"/>
<path fill-rule="evenodd" clip-rule="evenodd" d="M86.9874 855.5C89.1965 855.5 90.9874 853.709 90.9874 851.5V800.66C90.9874 798.807 92.259 797.197 94.0609 796.768L101.149 795.081C101.374 795.027 101.604 794.993 101.834 794.979L289.583 783.645C291.062 783.556 292.371 782.657 292.984 781.308L294.109 778.834C294.358 778.285 294.48 777.687 294.466 777.085L289.029 544.283C289.003 543.148 288.495 542.078 287.633 541.34L286.699 540.538C285.921 539.872 284.917 539.529 283.894 539.581L91.1093 549.293C88.854 549.406 86.9518 547.632 86.9088 545.374L86.012 498.291C85.996 497.452 85.7163 496.639 85.2127 495.967L83.229 493.322C83.0683 493.108 82.8865 492.91 82.6864 492.733L78.4874 489L76.4951 487.672C75.838 487.234 75.066 487 74.2763 487H72.2577C71.7488 487 71.2446 487.097 70.7721 487.286L66.8741 488.845C66.617 488.948 66.3712 489.077 66.1408 489.231L61.6859 492.201C60.9112 492.717 60.341 493.488 60.0734 494.38L59.1687 497.396C59.0485 497.796 58.9919 498.213 59.0009 498.631L66.4632 845.801C66.479 846.537 66.6978 847.255 67.0955 847.875L70.8069 853.66C71.5425 854.807 72.8112 855.5 74.1736 855.5H86.9874ZM88 582.5L90.5 578L94.5 574.5L100 572.5L263 565L266 568.5L270 748.5L264.5 756.5L104 766L99.5 765L92.5 759L90 753L88 582.5Z" fill="url(#paint9_radial_1042_21954)" fill-opacity="0.2"/>
<circle cx="207" cy="121" r="32" fill="#948B6B"/>
<circle cx="207" cy="121" r="23" fill="#A02121"/>
<circle cx="143" cy="670" r="34" fill="url(#paint10_radial_1042_21954)"/>
<circle cx="143" cy="670" r="34" fill="url(#paint11_radial_1042_21954)" fill-opacity="0.85"/>
<path d="M239 670.5C239 680.165 231.165 688 221.5 688C211.835 688 204 680.165 204 670.5C204 660.835 211.835 653 221.5 653C231.165 653 239 660.835 239 670.5Z" fill="#A02121"/>
<rect x="377" y="465" width="29" height="85" fill="#D9D9D9"/>
<path d="M389 481H391C393.209 481 395 482.791 395 485V530C395 532.209 393.209 534 391 534H389V481Z" fill="#9F9F9F"/>
<rect x="318" y="80" width="319" height="57" rx="6" fill="#003DA5" stroke="black" stroke-width="4"/>
<path d="M351.172 96.9688V101.047H344.281V120H339.438V101.047H332.516V96.9688H351.172ZM363.781 110.969H358.812V120H354.109V96.9688H365.406C367.021 97 368.26 97.1979 369.125 97.5625C370 97.9271 370.74 98.4635 371.344 99.1719C371.844 99.7552 372.24 100.401 372.531 101.109C372.823 101.818 372.969 102.625 372.969 103.531C372.969 104.625 372.693 105.703 372.141 106.766C371.589 107.818 370.677 108.562 369.406 109C370.469 109.427 371.219 110.036 371.656 110.828C372.104 111.609 372.328 112.807 372.328 114.422V115.969C372.328 117.021 372.37 117.734 372.453 118.109C372.578 118.703 372.87 119.141 373.328 119.422V120H368.031C367.885 119.49 367.781 119.078 367.719 118.766C367.594 118.12 367.526 117.458 367.516 116.781L367.484 114.641C367.464 113.172 367.193 112.193 366.672 111.703C366.161 111.214 365.198 110.969 363.781 110.969ZM366.703 106.781C367.661 106.344 368.141 105.479 368.141 104.188C368.141 102.792 367.677 101.854 366.75 101.375C366.229 101.104 365.448 100.969 364.406 100.969H358.812V107.156H364.266C365.349 107.156 366.161 107.031 366.703 106.781ZM390.609 115.266H382.125L380.531 120H375.5L383.719 96.9688H389.156L397.312 120H392.094L390.609 115.266ZM389.266 111.297L386.391 102.234L383.422 111.297H389.266ZM418.875 120H414.062L404.656 103.641V120H400.172V96.9688H405.219L414.391 113.047V96.9688H418.875V120ZM431.734 116.672C432.87 116.672 433.792 116.547 434.5 116.297C435.844 115.818 436.516 114.927 436.516 113.625C436.516 112.865 436.182 112.276 435.516 111.859C434.849 111.453 433.802 111.094 432.375 110.781L429.938 110.234C427.542 109.693 425.885 109.104 424.969 108.469C423.417 107.406 422.641 105.745 422.641 103.484C422.641 101.422 423.391 99.7083 424.891 98.3438C426.391 96.9792 428.594 96.2969 431.5 96.2969C433.927 96.2969 435.995 96.9427 437.703 98.2344C439.422 99.5156 440.323 101.38 440.406 103.828H435.781C435.698 102.443 435.094 101.458 433.969 100.875C433.219 100.49 432.286 100.297 431.172 100.297C429.932 100.297 428.943 100.547 428.203 101.047C427.464 101.547 427.094 102.245 427.094 103.141C427.094 103.964 427.458 104.578 428.188 104.984C428.656 105.255 429.656 105.573 431.188 105.938L435.156 106.891C436.896 107.307 438.208 107.865 439.094 108.562C440.469 109.646 441.156 111.214 441.156 113.266C441.156 115.37 440.349 117.12 438.734 118.516C437.13 119.901 434.859 120.594 431.922 120.594C428.922 120.594 426.562 119.911 424.844 118.547C423.125 117.172 422.266 115.286 422.266 112.891H426.859C427.005 113.943 427.292 114.729 427.719 115.25C428.5 116.198 429.839 116.672 431.734 116.672ZM444.344 96.9688H449.125V120H444.344V96.9688ZM470.359 96.9688V101.047H463.469V120H458.625V101.047H451.703V96.9688H470.359ZM477.594 120H473.109V96.9688H480.109L484.297 115.078L488.453 96.9688H495.375V120H490.891V104.422C490.891 103.974 490.896 103.349 490.906 102.547C490.917 101.734 490.922 101.109 490.922 100.672L486.562 120H481.891L477.562 100.672C477.562 101.109 477.568 101.734 477.578 102.547C477.589 103.349 477.594 103.974 477.594 104.422V120ZM513.328 115.266H504.844L503.25 120H498.219L506.438 96.9688H511.875L520.031 120H514.812L513.328 115.266ZM511.984 111.297L509.109 102.234L506.141 111.297H511.984ZM537.328 96.9688V101.047H530.438V120H525.594V101.047H518.672V96.9688H537.328ZM556.891 96.9688V101.047H550V120H545.156V101.047H538.234V96.9688H556.891ZM575.75 109.938H564.562V115.859H577.312V120H559.859V96.9688H576.75V101.047H564.562V105.938H575.75V109.938ZM590.844 110.969H585.875V120H581.172V96.9688H592.469C594.083 97 595.323 97.1979 596.188 97.5625C597.062 97.9271 597.802 98.4635 598.406 99.1719C598.906 99.7552 599.302 100.401 599.594 101.109C599.885 101.818 600.031 102.625 600.031 103.531C600.031 104.625 599.755 105.703 599.203 106.766C598.651 107.818 597.74 108.562 596.469 109C597.531 109.427 598.281 110.036 598.719 110.828C599.167 111.609 599.391 112.807 599.391 114.422V115.969C599.391 117.021 599.432 117.734 599.516 118.109C599.641 118.703 599.932 119.141 600.391 119.422V120H595.094C594.948 119.49 594.844 119.078 594.781 118.766C594.656 118.12 594.589 117.458 594.578 116.781L594.547 114.641C594.526 113.172 594.255 112.193 593.734 111.703C593.224 111.214 592.26 110.969 590.844 110.969ZM593.766 106.781C594.724 106.344 595.203 105.479 595.203 104.188C595.203 102.792 594.74 101.854 593.812 101.375C593.292 101.104 592.51 100.969 591.469 100.969H585.875V107.156H591.328C592.411 107.156 593.224 107.031 593.766 106.781ZM612.547 116.672C613.682 116.672 614.604 116.547 615.312 116.297C616.656 115.818 617.328 114.927 617.328 113.625C617.328 112.865 616.995 112.276 616.328 111.859C615.661 111.453 614.615 111.094 613.188 110.781L610.75 110.234C608.354 109.693 606.698 109.104 605.781 108.469C604.229 107.406 603.453 105.745 603.453 103.484C603.453 101.422 604.203 99.7083 605.703 98.3438C607.203 96.9792 609.406 96.2969 612.312 96.2969C614.74 96.2969 616.807 96.9427 618.516 98.2344C620.234 99.5156 621.135 101.38 621.219 103.828H616.594C616.51 102.443 615.906 101.458 614.781 100.875C614.031 100.49 613.099 100.297 611.984 100.297C610.745 100.297 609.755 100.547 609.016 101.047C608.276 101.547 607.906 102.245 607.906 103.141C607.906 103.964 608.271 104.578 609 104.984C609.469 105.255 610.469 105.573 612 105.938L615.969 106.891C617.708 107.307 619.021 107.865 619.906 108.562C621.281 109.646 621.969 111.214 621.969 113.266C621.969 115.37 621.161 117.12 619.547 118.516C617.943 119.901 615.672 120.594 612.734 120.594C609.734 120.594 607.375 119.911 605.656 118.547C603.938 117.172 603.078 115.286 603.078 112.891H607.672C607.818 113.943 608.104 114.729 608.531 115.25C609.312 116.198 610.651 116.672 612.547 116.672Z" fill="white"/>
<defs>
<linearGradient id="paint0_linear_1042_21954" x1="876" y1="203" x2="788" y2="539" gradientUnits="userSpaceOnUse">
<stop stop-color="white"/>
<stop offset="0.0534427" stop-color="white"/>
<stop offset="0.116903" stop-color="#808080"/>
<stop offset="0.875089" stop-color="#808080"/>
<stop offset="0.940955" stop-color="#F2F2F2"/>
<stop offset="1" stop-color="white"/>
</linearGradient>
<linearGradient id="paint1_linear_1042_21954" x1="897" y1="613.5" x2="658.5" y2="609.5" gradientUnits="userSpaceOnUse">
<stop stop-color="#BFBFBF"/>
<stop offset="0.122876" stop-color="#BFBFBF"/>
<stop offset="0.160517" stop-color="#808080"/>
<stop offset="0.870903" stop-color="#999999"/>
<stop offset="0.967719" stop-color="#999999"/>
</linearGradient>
<linearGradient id="paint2_linear_1042_21954" x1="705.5" y1="487" x2="761" y2="856" gradientUnits="userSpaceOnUse">
<stop offset="0.484202" stop-color="#BFBFBF"/>
<stop offset="0.551148" stop-color="#F2F2F2"/>
<stop offset="0.614608" stop-color="#808080"/>
<stop offset="0.8125" stop-color="#808080"/>
<stop offset="1" stop-color="#737373"/>
</linearGradient>
<radialGradient id="paint3_radial_1042_21954" cx="0" cy="0" r="1" gradientUnits="userSpaceOnUse" gradientTransform="translate(897 487) rotate(122.491) scale(437.477 279.542)">
<stop stop-color="white"/>
<stop offset="1"/>
</radialGradient>
<radialGradient id="paint4_radial_1042_21954" cx="0" cy="0" r="1" gradientUnits="userSpaceOnUse" gradientTransform="translate(34 34) rotate(90) scale(34)">
<stop stop-color="#878787"/>
<stop offset="0.927083" stop-color="#878787"/>
<stop offset="1" stop-color="#E6E6E6"/>
</radialGradient>
<radialGradient id="paint5_radial_1042_21954" cx="0" cy="0" r="1" gradientUnits="userSpaceOnUse" gradientTransform="translate(32.5 19) rotate(46.0809) scale(18.7417)">
<stop stop-color="white"/>
<stop offset="0.166667" stop-color="white"/>
<stop offset="0.473958" stop-color="white" stop-opacity="0"/>
</radialGradient>
<linearGradient id="paint6_linear_1042_21954" x1="80" y1="203" x2="168" y2="539" gradientUnits="userSpaceOnUse">
<stop stop-color="white"/>
<stop offset="0.0534427" stop-color="white"/>
<stop offset="0.116903" stop-color="#808080"/>
<stop offset="0.875089" stop-color="#808080"/>
<stop offset="0.940955" stop-color="#F2F2F2"/>
<stop offset="1" stop-color="white"/>
</linearGradient>
<linearGradient id="paint7_linear_1042_21954" x1="59" y1="613.5" x2="297.5" y2="609.5" gradientUnits="userSpaceOnUse">
<stop stop-color="#BFBFBF"/>
<stop offset="0.122876" stop-color="#BFBFBF"/>
<stop offset="0.160517" stop-color="#808080"/>
<stop offset="0.870903" stop-color="#999999"/>
<stop offset="0.967719" stop-color="#999999"/>
</linearGradient>
<linearGradient id="paint8_linear_1042_21954" x1="250.5" y1="487" x2="195" y2="856" gradientUnits="userSpaceOnUse">
<stop offset="0.484202" stop-color="#BFBFBF"/>
<stop offset="0.551148" stop-color="#F2F2F2"/>
<stop offset="0.614608" stop-color="#808080"/>
<stop offset="0.8125" stop-color="#808080"/>
<stop offset="1" stop-color="#737373"/>
</linearGradient>
<radialGradient id="paint9_radial_1042_21954" cx="0" cy="0" r="1" gradientUnits="userSpaceOnUse" gradientTransform="translate(59 487) rotate(57.5087) scale(437.477 279.542)">
<stop stop-color="white"/>
<stop offset="1"/>
</radialGradient>
<radialGradient id="paint10_radial_1042_21954" cx="0" cy="0" r="1" gradientUnits="userSpaceOnUse" gradientTransform="translate(143 670) rotate(90) scale(34)">
<stop stop-color="#878787"/>
<stop offset="0.927083" stop-color="#878787"/>
<stop offset="1" stop-color="#E6E6E6"/>
</radialGradient>
<radialGradient id="paint11_radial_1042_21954" cx="0" cy="0" r="1" gradientUnits="userSpaceOnUse" gradientTransform="translate(141.5 655) rotate(46.0809) scale(18.7417)">
<stop stop-color="white"/>
<stop offset="0.166667" stop-color="white"/>
<stop offset="0.473958" stop-color="white" stop-opacity="0"/>
</radialGradient>
</defs>
</svg>
